<?xml version="1.0" encoding="UTF-8"?>
<!DOCTYPE svg PUBLIC "-//W3C//DTD SVG 1.1//EN" "http://www.w3.org/Graphics/SVG/1.1/DTD/svg11.dtd">
<svg xmlns="http://www.w3.org/2000/svg" version="1.1" width="1024px" height="1024px" style="shape-rendering:geometricPrecision; text-rendering:geometricPrecision; image-rendering:optimizeQuality; fill-rule:evenodd; clip-rule:evenodd" xmlns:xlink="http://www.w3.org/1999/xlink">
<g><path style="opacity:1" fill-opacity="0" d="M -0.5,-0.5 C 47.1667,-0.5 94.8333,-0.5 142.5,-0.5C 61.8333,14.1667 14.1667,61.8333 -0.5,142.5C -0.5,94.8333 -0.5,47.1667 -0.5,-0.5 Z"/></g>
<g><path style="opacity:1" fill="#555956" d="M 142.5,-0.5 C 155.5,-0.5 168.5,-0.5 181.5,-0.5C 181.5,59.8333 181.5,120.167 181.5,180.5C 120.833,180.5 60.1667,180.5 -0.5,180.5C -0.5,167.833 -0.5,155.167 -0.5,142.5C 14.1667,61.8333 61.8333,14.1667 142.5,-0.5 Z"/></g>
<g><path style="opacity:1" fill="#9b9c95" d="M 181.5,-0.5 C 182.167,-0.5 182.833,-0.5 183.5,-0.5C 183.5,60.1667 183.5,120.833 183.5,181.5C 122.167,181.5 60.8333,181.5 -0.5,181.5C -0.5,181.167 -0.5,180.833 -0.5,180.5C 60.1667,180.5 120.833,180.5 181.5,180.5C 181.5,120.167 181.5,59.8333 181.5,-0.5 Z"/></g>
<g><path style="opacity:1" fill="#f0eee1" d="M 183.5,-0.5 C 190.167,-0.5 196.833,-0.5 203.5,-0.5C 203.5,11.5 203.5,23.5 203.5,35.5C 301.834,35.6667 400.167,35.5 498.5,35C 499.488,23.2473 499.821,11.4139 499.5,-0.5C 611.5,-0.5 723.5,-0.5 835.5,-0.5C 835.5,11.1667 835.5,22.8333 835.5,34.5C 878.167,35.8333 920.833,35.8333 963.5,34.5C 997.843,62.846 1017.84,99.1793 1023.5,143.5C 1023.5,163.167 1023.5,182.833 1023.5,202.5C 1009.59,202.177 995.754,202.51 982,203.5C 981.333,301.167 981.333,398.833 982,496.5C 995.754,497.49 1009.59,497.823 1023.5,497.5C 1023.5,553.5 1023.5,609.5 1023.5,665.5C 1010.17,665.5 996.833,665.5 983.5,665.5C 983.5,616.5 983.5,567.5 983.5,518.5C 933.833,518.5 884.167,518.5 834.5,518.5C 834.168,567.67 834.501,616.67 835.5,665.5C 884.167,665.5 932.833,665.5 981.5,665.5C 981.168,714.336 981.501,763.003 982.5,811.5C 982.611,812.117 982.944,812.617 983.5,813C 996.829,813.5 1010.16,813.667 1023.5,813.5C 1023.5,820.167 1023.5,826.833 1023.5,833.5C 1009.5,833.5 995.5,833.5 981.5,833.5C 981.168,879.336 981.501,925.003 982.5,970.5C 979.167,974.5 975.5,978.167 971.5,981.5C 926.167,980.167 880.833,980.167 835.5,981.5C 835.5,995.5 835.5,1009.5 835.5,1023.5C 828.5,1023.5 821.5,1023.5 814.5,1023.5C 814.829,1009.32 814.496,995.323 813.5,981.5C 765.003,980.501 716.336,980.168 667.5,980.5C 667.5,931.5 667.5,882.5 667.5,833.5C 618.167,833.5 568.833,833.5 519.5,833.5C 519.5,896.833 519.5,960.167 519.5,1023.5C 463.5,1023.5 407.5,1023.5 351.5,1023.5C 351.667,960.499 351.5,897.499 351,834.5C 302.571,833.336 254.071,833.17 205.5,834C 205,834.5 204.5,835 204,835.5C 203.5,898.166 203.333,960.832 203.5,1023.5C 197.167,1023.5 190.833,1023.5 184.5,1023.5C 184.83,960.125 184.496,896.792 183.5,833.5C 122.17,832.5 60.837,832.167 -0.5,832.5C -0.5,826.167 -0.5,819.833 -0.5,813.5C 11.5,813.5 23.5,813.5 35.5,813.5C 35.5,764.167 35.5,714.833 35.5,665.5C 23.5,665.5 11.5,665.5 -0.5,665.5C -0.5,504.167 -0.5,342.833 -0.5,181.5C 60.8333,181.5 122.167,181.5 183.5,181.5C 183.5,120.833 183.5,60.1667 183.5,-0.5 Z"/></g>
<g><path style="opacity:1" fill="#a32217" d="M 836.5,-0.5 C 848.833,-0.5 861.167,-0.5 873.5,-0.5C 905.767,2.03137 934.767,13.0314 960.5,32.5C 919.337,33.4986 878.003,33.832 836.5,33.5C 836.5,22.1667 836.5,10.8333 836.5,-0.5 Z"/></g>
<g><path style="opacity:1" fill-opacity="0" d="M 873.5,-0.5 C 923.5,-0.5 973.5,-0.5 1023.5,-0.5C 1023.5,47.5 1023.5,95.5 1023.5,143.5C 1017.84,99.1793 997.843,62.846 963.5,34.5C 963.5,33.8333 963.167,33.5 962.5,33.5C 961.833,33.1667 961.167,32.8333 960.5,32.5C 934.767,13.0314 905.767,2.03137 873.5,-0.5 Z"/></g>
<g><path style="opacity:1" fill="#bf6c60" d="M 835.5,-0.5 C 835.833,-0.5 836.167,-0.5 836.5,-0.5C 836.5,10.8333 836.5,22.1667 836.5,33.5C 878.003,33.832 919.337,33.4986 960.5,32.5C 961.167,32.8333 961.833,33.1667 962.5,33.5C 920.337,34.4987 878.003,34.832 835.5,34.5C 835.5,22.8333 835.5,11.1667 835.5,-0.5 Z"/></g>
<g><path style="opacity:1" fill="#ccb8a1" d="M 203.5,-0.5 C 203.833,-0.5 204.167,-0.5 204.5,-0.5C 204.5,11.1667 204.5,22.8333 204.5,34.5C 302.335,34.8328 400.001,34.4994 497.5,33.5C 497.5,22.1667 497.5,10.8333 497.5,-0.5C 498.167,-0.5 498.833,-0.5 499.5,-0.5C 499.821,11.4139 499.488,23.2473 498.5,35C 400.167,35.5 301.834,35.6667 203.5,35.5C 203.5,23.5 203.5,11.5 203.5,-0.5 Z"/></g>
<g><path style="opacity:1" fill="#ae8c6c" d="M 204.5,-0.5 C 204.833,-0.5 205.167,-0.5 205.5,-0.5C 205.5,10.8333 205.5,22.1667 205.5,33.5C 302.833,33.5 400.167,33.5 497.5,33.5C 400.001,34.4994 302.335,34.8328 204.5,34.5C 204.5,22.8333 204.5,11.1667 204.5,-0.5 Z"/></g>
<g><path style="opacity:1" fill="#8e5d34" d="M 205.5,-0.5 C 205.833,-0.5 206.167,-0.5 206.5,-0.5C 206.5,10.5 206.5,21.5 206.5,32.5C 303.167,32.5 399.833,32.5 496.5,32.5C 496.5,21.5 496.5,10.5 496.5,-0.5C 496.833,-0.5 497.167,-0.5 497.5,-0.5C 497.5,10.8333 497.5,22.1667 497.5,33.5C 400.167,33.5 302.833,33.5 205.5,33.5C 205.5,22.1667 205.5,10.8333 205.5,-0.5 Z"/></g>
<g><path style="opacity:1" fill="#865227" d="M 206.5,-0.5 C 303.167,-0.5 399.833,-0.5 496.5,-0.5C 496.5,10.5 496.5,21.5 496.5,32.5C 399.833,32.5 303.167,32.5 206.5,32.5C 206.5,21.5 206.5,10.5 206.5,-0.5 Z"/></g>
<g><path style="opacity:1" fill="#d8ab9f" d="M 962.5,33.5 C 963.167,33.5 963.5,33.8333 963.5,34.5C 920.833,35.8333 878.167,35.8333 835.5,34.5C 878.003,34.832 920.337,34.4987 962.5,33.5 Z"/></g>
<g><path style="opacity:1" fill="#d2d2c8" d="M 813.5,34.5 C 764.664,34.1678 715.997,34.5012 667.5,35.5C 667.5,83.8333 667.5,132.167 667.5,180.5C 715.997,181.499 764.664,181.832 813.5,181.5C 764.668,182.665 715.668,182.832 666.5,182C 665.836,157.405 665.502,132.738 665.5,108C 665.502,83.2621 665.836,58.5954 666.5,34C 715.668,33.1684 764.668,33.335 813.5,34.5 Z"/></g>
<g><path style="opacity:1" fill="#8c928d" d="M 667.5,35.5 C 715.833,35.5 764.167,35.5 812.5,35.5C 812.5,83.8333 812.5,132.167 812.5,180.5C 764.167,180.5 715.833,180.5 667.5,180.5C 667.5,132.167 667.5,83.8333 667.5,35.5 Z"/></g>
<g><path style="opacity:1" fill="#abafa8" d="M 667.5,35.5 C 715.997,34.5012 764.664,34.1678 813.5,34.5C 814.833,83.5 814.833,132.5 813.5,181.5C 764.664,181.832 715.997,181.499 667.5,180.5C 715.833,180.5 764.167,180.5 812.5,180.5C 812.5,132.167 812.5,83.8333 812.5,35.5C 764.167,35.5 715.833,35.5 667.5,35.5 Z"/></g>
<g><path style="opacity:1" fill="#818883" d="M 740.5,91.5 C 757.323,92.1525 765.156,100.819 764,117.5C 759.365,129.738 750.532,134.572 737.5,132C 724.613,125.348 720.78,115.182 726,101.5C 729.589,96.2946 734.422,92.9612 740.5,91.5 Z"/></g>
<g><path style="opacity:1" fill="#4d504d" d="M 103.5,93.5 C 113.655,91.3803 122.155,94.047 129,101.5C 133.497,111.43 131.997,120.263 124.5,128C 114.076,133.282 104.743,131.782 96.5,123.5C 90.6408,111.367 92.9741,101.367 103.5,93.5 Z"/></g>
<g><path style="opacity:1" fill="#676b68" d="M 752.5,102.5 C 755.48,102.241 757.313,103.574 758,106.5C 759.345,123.946 751.845,129.446 735.5,123C 735.167,122.667 734.833,122.333 734.5,122C 741.178,121.787 746.678,119.287 751,114.5C 752.156,110.582 752.656,106.582 752.5,102.5 Z"/></g>
<g><path style="opacity:1" fill="#404341" d="M 119.5,99.5 C 126.14,103.118 128.806,108.785 127.5,116.5C 126.325,116.281 125.325,116.614 124.5,117.5C 122.396,120.572 120.396,123.572 118.5,126.5C 116.453,126.511 114.453,126.844 112.5,127.5C 107.879,127.527 104.546,125.527 102.5,121.5C 116.845,120.793 122.512,113.46 119.5,99.5 Z"/></g>
<g><path style="opacity:1" fill="#f1e8cc" d="M 497.5,202.5 C 399.999,202.167 302.665,202.501 205.5,203.5C 205.167,203.5 204.833,203.5 204.5,203.5C 204.167,203.5 203.833,203.5 203.5,203.5C 203.611,202.883 203.944,202.383 204.5,202C 302.334,201.168 400.001,201.334 497.5,202.5 Z"/></g>
<g><path style="opacity:1" fill="#f1e0a9" d="M 205.5,203.5 C 302.665,202.501 399.999,202.167 497.5,202.5C 498.833,226.824 499.5,251.491 499.5,276.5C 499.5,301.509 498.833,326.176 497.5,350.5C 497.5,350.167 497.5,349.833 497.5,349.5C 497.5,300.833 497.5,252.167 497.5,203.5C 400.167,203.5 302.833,203.5 205.5,203.5 Z"/></g>
<g><path style="opacity:1" fill="#f1de9e" d="M 203.5,203.5 C 203.833,203.5 204.167,203.5 204.5,203.5C 204.167,301.335 204.501,399.001 205.5,496.5C 205.5,496.833 205.5,497.167 205.5,497.5C 203.502,399.839 202.836,301.839 203.5,203.5 Z"/></g>
<g><path style="opacity:1" fill="#f0c845" d="M 351.5,349.5 C 351.167,349.5 350.833,349.5 350.5,349.5C 349.501,397.997 349.168,446.664 349.5,495.5C 301.5,495.5 253.5,495.5 205.5,495.5C 205.5,398.5 205.5,301.5 205.5,204.5C 302.5,204.5 399.5,204.5 496.5,204.5C 496.5,252.5 496.5,300.5 496.5,348.5C 447.997,348.168 399.664,348.501 351.5,349.5 Z"/></g>
<g><path style="opacity:1" fill="#93b689" d="M 1023.5,202.5 C 1023.5,202.833 1023.5,203.167 1023.5,203.5C 1010.17,203.5 996.833,203.5 983.5,203.5C 983.5,301.167 983.5,398.833 983.5,496.5C 996.833,496.5 1010.17,496.5 1023.5,496.5C 1023.5,496.833 1023.5,497.167 1023.5,497.5C 1009.59,497.823 995.754,497.49 982,496.5C 981.333,398.833 981.333,301.167 982,203.5C 995.754,202.51 1009.59,202.177 1023.5,202.5 Z"/></g>
<g><path style="opacity:1" fill="#4d8b46" d="M 1023.5,203.5 C 1023.5,203.833 1023.5,204.167 1023.5,204.5C 1010.5,204.5 997.5,204.5 984.5,204.5C 984.5,301.5 984.5,398.5 984.5,495.5C 997.5,495.5 1010.5,495.5 1023.5,495.5C 1023.5,495.833 1023.5,496.167 1023.5,496.5C 1010.17,496.5 996.833,496.5 983.5,496.5C 983.5,398.833 983.5,301.167 983.5,203.5C 996.833,203.5 1010.17,203.5 1023.5,203.5 Z"/></g>
<g><path style="opacity:1" fill="#3e8237" d="M 1023.5,204.5 C 1023.5,301.5 1023.5,398.5 1023.5,495.5C 1010.5,495.5 997.5,495.5 984.5,495.5C 984.5,398.5 984.5,301.5 984.5,204.5C 997.5,204.5 1010.5,204.5 1023.5,204.5 Z"/></g>
<g><path style="opacity:1" fill="#f1cf60" d="M 204.5,203.5 C 204.833,203.5 205.167,203.5 205.5,203.5C 302.833,203.5 400.167,203.5 497.5,203.5C 497.5,252.167 497.5,300.833 497.5,349.5C 448.833,349.5 400.167,349.5 351.5,349.5C 399.664,348.501 447.997,348.168 496.5,348.5C 496.5,300.5 496.5,252.5 496.5,204.5C 399.5,204.5 302.5,204.5 205.5,204.5C 205.5,301.5 205.5,398.5 205.5,495.5C 205.5,495.833 205.5,496.167 205.5,496.5C 204.501,399.001 204.167,301.335 204.5,203.5 Z"/></g>
<g><path style="opacity:1" fill="#e7c042" d="M 422.5,259.5 C 444.285,258.116 453.118,268.116 449,289.5C 443.051,300.393 433.884,304.559 421.5,302C 407.203,295.218 403.036,284.384 409,269.5C 410.141,267.391 411.641,265.558 413.5,264C 416.648,262.576 419.648,261.076 422.5,259.5 Z"/></g>
<g><path style="opacity:1" fill="#d7b33e" d="M 429.5,287.5 C 428.713,289.104 427.38,289.771 425.5,289.5C 423.076,289.192 420.743,289.526 418.5,290.5C 419.069,293.237 420.736,294.737 423.5,295C 438.836,297.329 445.002,290.829 442,275.5C 440.894,272.274 439.061,269.607 436.5,267.5C 436.648,272.129 436.315,276.796 435.5,281.5C 435.167,281.5 434.833,281.5 434.5,281.5C 435.245,274.883 433.578,269.05 429.5,264C 430.025,263.308 430.692,262.808 431.5,262.5C 446.219,268.277 450.052,278.277 443,292.5C 433.802,301.666 424.802,301.666 416,292.5C 415.598,291.128 415.098,289.795 414.5,288.5C 415,288.167 415.5,287.833 416,287.5C 420.497,288.723 424.997,288.723 429.5,287.5 Z"/></g>
<g><path style="opacity:1" fill="#c1a138" d="M 425.5,289.5 C 424.391,290.29 423.058,290.79 421.5,291C 438.043,294.955 443.71,288.788 438.5,272.5C 437.682,275.107 437.182,277.774 437,280.5C 436.617,281.056 436.117,281.389 435.5,281.5C 436.315,276.796 436.648,272.129 436.5,267.5C 439.061,269.607 440.894,272.274 442,275.5C 445.002,290.829 438.836,297.329 423.5,295C 420.736,294.737 419.069,293.237 418.5,290.5C 420.743,289.526 423.076,289.192 425.5,289.5 Z"/></g>
<g><path style="opacity:1" fill="#a98c30" d="M 425.5,289.5 C 427.38,289.771 428.713,289.104 429.5,287.5C 432.261,286.407 433.927,284.407 434.5,281.5C 434.833,281.5 435.167,281.5 435.5,281.5C 436.117,281.389 436.617,281.056 437,280.5C 437.182,277.774 437.682,275.107 438.5,272.5C 443.71,288.788 438.043,294.955 421.5,291C 423.058,290.79 424.391,290.29 425.5,289.5 Z"/></g>
<g><path style="opacity:1" fill="#e5be41" d="M 279.5,260.5 C 299.367,263.275 305.533,273.942 298,292.5C 291.077,300.465 282.577,302.632 272.5,299C 261.122,290.985 258.789,280.818 265.5,268.5C 269.512,264.445 274.179,261.778 279.5,260.5 Z"/></g>
<g><path style="opacity:1" fill="#c7a639" d="M 283.5,287.5 C 283.389,288.117 283.056,288.617 282.5,289C 278.789,289.175 275.122,289.675 271.5,290.5C 271.977,291.478 272.643,292.311 273.5,293C 289.822,297.098 296.322,290.931 293,274.5C 292.147,272.875 291.147,272.542 290,273.5C 289.667,276.5 289.333,279.5 289,282.5C 288.617,283.056 288.117,283.389 287.5,283.5C 288.235,278.215 288.735,272.882 289,267.5C 292.544,269.039 294.544,271.706 295,275.5C 297.743,291.091 291.243,297.925 275.5,296C 272.355,294.022 269.688,291.522 267.5,288.5C 272.8,288.651 278.133,288.317 283.5,287.5 Z"/></g>
<g><path style="opacity:1" fill="#b09233" d="M 283.5,287.5 C 284.5,285.833 285.833,284.5 287.5,283.5C 288.117,283.389 288.617,283.056 289,282.5C 289.333,279.5 289.667,276.5 290,273.5C 291.147,272.542 292.147,272.875 293,274.5C 296.322,290.931 289.822,297.098 273.5,293C 272.643,292.311 271.977,291.478 271.5,290.5C 275.122,289.675 278.789,289.175 282.5,289C 283.056,288.617 283.389,288.117 283.5,287.5 Z"/></g>
<g><path style="opacity:1" fill="#c2dcf6" d="M 667.5,203.5 C 716.167,203.5 764.833,203.5 813.5,203.5C 813.5,252.167 813.5,300.833 813.5,349.5C 764.833,349.5 716.167,349.5 667.5,349.5C 667.167,349.5 666.833,349.5 666.5,349.5C 666.168,300.664 666.501,251.997 667.5,203.5 Z"/></g>
<g><path style="opacity:1" fill="#b5d7fa" d="M 668.5,204.5 C 716.5,204.5 764.5,204.5 812.5,204.5C 812.5,252.5 812.5,300.5 812.5,348.5C 764.5,348.5 716.5,348.5 668.5,348.5C 668.5,300.5 668.5,252.5 668.5,204.5 Z"/></g>
<g><path style="opacity:1" fill="#9ebcdc" d="M 732.5,287.5 C 735.391,288.403 738.391,288.736 741.5,288.5C 740.319,290.067 738.653,290.901 736.5,291C 741.702,294.225 747.035,294.225 752.5,291C 756.243,286.521 757.409,281.354 756,275.5C 755.692,274.692 755.192,274.025 754.5,273.5C 753.92,276.447 752.92,279.114 751.5,281.5C 751.817,277.298 751.483,273.298 750.5,269.5C 750.461,268.417 750.127,267.417 749.5,266.5C 750.833,265.167 752.167,265.167 753.5,266.5C 763.667,275.881 764.167,285.881 755,296.5C 742.698,302.949 733.864,299.949 728.5,287.5C 729.7,286.708 731.033,286.708 732.5,287.5 Z"/></g>
<g><path style="opacity:1" fill="#8199b3" d="M 741.5,288.5 C 743.308,288.509 744.975,288.009 746.5,287C 748.3,285.188 749.967,283.355 751.5,281.5C 752.92,279.114 753.92,276.447 754.5,273.5C 755.192,274.025 755.692,274.692 756,275.5C 757.409,281.354 756.243,286.521 752.5,291C 747.035,294.225 741.702,294.225 736.5,291C 738.653,290.901 740.319,290.067 741.5,288.5 Z"/></g>
<g><path style="opacity:1" fill="#a8d0f9" d="M 750.5,269.5 C 751.483,273.298 751.817,277.298 751.5,281.5C 749.967,283.355 748.3,285.188 746.5,287C 744.975,288.009 743.308,288.509 741.5,288.5C 738.391,288.736 735.391,288.403 732.5,287.5C 724.86,282.104 723.36,275.438 728,267.5C 733.131,261.882 738.964,260.715 745.5,264C 746.833,266.191 748.5,268.024 750.5,269.5 Z"/></g>
<g><path style="opacity:1" fill="#f1dc98" d="M 351.5,349.5 C 400.167,349.5 448.833,349.5 497.5,349.5C 497.5,349.833 497.5,350.167 497.5,350.5C 448.761,350.172 400.095,350.505 351.5,351.5C 351.5,350.833 351.5,350.167 351.5,349.5 Z"/></g>
<g><path style="opacity:1" fill="#dfe8e9" d="M 667.5,203.5 C 716.664,202.501 765.997,202.168 815.5,202.5C 815.667,251.834 815.5,301.168 815,350.5C 765.905,351.497 716.739,351.831 667.5,351.5C 667.5,350.833 667.5,350.167 667.5,349.5C 716.167,349.5 764.833,349.5 813.5,349.5C 813.5,300.833 813.5,252.167 813.5,203.5C 764.833,203.5 716.167,203.5 667.5,203.5 Z"/></g>
<g><path style="opacity:1" fill="#e7c042" d="M 276.5,406.5 C 298.506,405.833 306.673,416.167 301,437.5C 294.996,448.483 285.829,452.15 273.5,448.5C 261.55,442.432 257.384,432.765 261,419.5C 263.668,411.985 268.834,407.652 276.5,406.5 Z"/></g>
<g><path style="opacity:1" fill="#a5892f" d="M 278.5,435.5 C 281.394,435.444 284.061,434.61 286.5,433C 287.252,432.329 287.586,431.496 287.5,430.5C 287.557,429.391 287.89,428.391 288.5,427.5C 289.167,427.5 289.5,427.167 289.5,426.5C 290.165,424.302 290.832,421.969 291.5,419.5C 296.685,431.135 293.018,437.801 280.5,439.5C 278.833,439.167 277.167,438.833 275.5,438.5C 276.993,437.859 277.993,436.859 278.5,435.5 Z"/></g>
<g><path style="opacity:1" fill="#c3a238" d="M 278.5,435.5 C 277.993,436.859 276.993,437.859 275.5,438.5C 277.167,438.833 278.833,439.167 280.5,439.5C 293.018,437.801 296.685,431.135 291.5,419.5C 290.832,421.969 290.165,424.302 289.5,426.5C 288.071,415.2 290.571,413.867 297,422.5C 297.998,438.491 290.498,444.991 274.5,442C 266.441,436.396 267.775,434.229 278.5,435.5 Z"/></g>
<g><path style="opacity:1" fill="#d9b53f" d="M 287.5,430.5 C 287.586,431.496 287.252,432.329 286.5,433C 284.061,434.61 281.394,435.444 278.5,435.5C 267.775,434.229 266.441,436.396 274.5,442C 290.498,444.991 297.998,438.491 297,422.5C 290.571,413.867 288.071,415.2 289.5,426.5C 289.5,427.167 289.167,427.5 288.5,427.5C 289.726,420.792 287.726,415.292 282.5,411C 283.025,410.308 283.692,409.808 284.5,409.5C 296.226,413.279 301.059,421.279 299,433.5C 295.4,442.887 288.566,447.053 278.5,446C 269.145,444.166 264.478,438.666 264.5,429.5C 266.277,430.901 267.944,432.401 269.5,434C 276.018,435.082 282.018,433.916 287.5,430.5 Z"/></g>
<g><path style="opacity:1" fill="#f1cd5a" d="M 350.5,349.5 C 350.5,398.5 350.5,447.5 350.5,496.5C 302.167,496.5 253.833,496.5 205.5,496.5C 205.5,496.167 205.5,495.833 205.5,495.5C 253.5,495.5 301.5,495.5 349.5,495.5C 349.168,446.664 349.501,397.997 350.5,349.5 Z"/></g>
<g><path style="opacity:1" fill="#f1d884" d="M 350.5,349.5 C 350.833,349.5 351.167,349.5 351.5,349.5C 351.5,350.167 351.5,350.833 351.5,351.5C 351.5,400.167 351.5,448.833 351.5,497.5C 302.833,497.5 254.167,497.5 205.5,497.5C 205.5,497.167 205.5,496.833 205.5,496.5C 253.833,496.5 302.167,496.5 350.5,496.5C 350.5,447.5 350.5,398.5 350.5,349.5 Z"/></g>
<g><path style="opacity:1" fill="#c67d71" d="M 666.5,349.5 C 666.833,349.5 667.167,349.5 667.5,349.5C 667.5,350.167 667.5,350.833 667.5,351.5C 667.5,399.833 667.5,448.167 667.5,496.5C 667.167,496.5 666.833,496.5 666.5,496.5C 617.67,497.499 568.67,497.832 519.5,497.5C 519.5,448.167 519.5,398.833 519.5,349.5C 568.5,349.5 617.5,349.5 666.5,349.5 Z"/></g>
<g><path style="opacity:1" fill="#b04338" d="M 665.5,351.5 C 666.499,399.664 666.832,447.997 666.5,496.5C 617.833,496.5 569.167,496.5 520.5,496.5C 520.5,447.833 520.5,399.167 520.5,350.5C 569.003,350.168 617.336,350.501 665.5,351.5 Z"/></g>
<g><path style="opacity:1" fill="#a22116" d="M 665.5,351.5 C 665.5,399.5 665.5,447.5 665.5,495.5C 617.5,495.5 569.5,495.5 521.5,495.5C 521.5,447.5 521.5,399.5 521.5,351.5C 569.5,351.5 617.5,351.5 665.5,351.5 Z"/></g>
<g><path style="opacity:1" fill="#951d13" d="M 590.5,408.5 C 611.498,407.331 619.665,416.998 615,437.5C 606.245,448.668 595.745,450.501 583.5,443C 576.923,434.629 575.757,425.463 580,415.5C 582.998,412.262 586.498,409.929 590.5,408.5 Z"/></g>
<g><path style="opacity:1" fill="#871b11" d="M 597.5,434.5 C 595.374,435.126 593.707,436.459 592.5,438.5C 607.666,440.161 612.499,433.827 607,419.5C 605.768,422.3 605.101,425.3 605,428.5C 604.617,429.056 604.117,429.389 603.5,429.5C 604.907,424.207 604.24,419.207 601.5,414.5C 602.723,413.386 604.056,413.219 605.5,414C 606.667,416.5 608.5,418.333 611,419.5C 613.789,424.348 614.122,429.348 612,434.5C 609.534,436.672 607.368,439.172 605.5,442C 594.401,446.723 586.401,443.556 581.5,432.5C 581.833,432.167 582.167,431.833 582.5,431.5C 583.59,432.727 584.924,433.56 586.5,434C 590.152,434.499 593.818,434.665 597.5,434.5 Z"/></g>
<g><path style="opacity:1" fill="#71160e" d="M 597.5,434.5 C 599.817,433.18 601.817,431.514 603.5,429.5C 604.117,429.389 604.617,429.056 605,428.5C 605.101,425.3 605.768,422.3 607,419.5C 612.499,433.827 607.666,440.161 592.5,438.5C 593.707,436.459 595.374,435.126 597.5,434.5 Z"/></g>
<g><path style="opacity:1" fill="#e5d0c3" d="M 666.5,496.5 C 666.833,496.5 667.167,496.5 667.5,496.5C 643.176,497.833 618.509,498.5 593.5,498.5C 568.664,498.5 543.998,498.167 519.5,497.5C 568.67,497.832 617.67,497.499 666.5,496.5 Z"/></g>
<g><path style="opacity:1" fill="#a6b5c9" d="M 983.5,665.5 C 983.167,665.5 982.833,665.5 982.5,665.5C 982.832,616.664 982.499,567.997 981.5,519.5C 933.167,519.5 884.833,519.5 836.5,519.5C 835.501,567.997 835.168,616.664 835.5,665.5C 834.501,616.67 834.168,567.67 834.5,518.5C 884.167,518.5 933.833,518.5 983.5,518.5C 983.5,567.5 983.5,616.5 983.5,665.5 Z"/></g>
<g><path style="opacity:1" fill="#d6c7b2" d="M 497.5,519.5 C 497.5,519.167 497.5,518.833 497.5,518.5C 498.833,542.657 499.5,567.157 499.5,592C 499.5,616.669 499.167,641.169 498.5,665.5C 498.832,616.664 498.499,567.997 497.5,519.5 Z"/></g>
<g><path style="opacity:1" fill="#a78260" d="M 497.5,518.5 C 497.5,518.833 497.5,519.167 497.5,519.5C 498.499,567.997 498.832,616.664 498.5,665.5C 449.5,665.5 400.5,665.5 351.5,665.5C 351.5,616.5 351.5,567.5 351.5,518.5C 400.167,518.5 448.833,518.5 497.5,518.5 Z"/></g>
<g><path style="opacity:1" fill="#906139" d="M 352.5,520.5 C 400.664,519.501 448.997,519.168 497.5,519.5C 497.832,568.003 497.499,616.336 496.5,664.5C 496.5,616.5 496.5,568.5 496.5,520.5C 448.5,520.5 400.5,520.5 352.5,520.5 Z"/></g>
<g><path style="opacity:1" fill="#865227" d="M 352.5,520.5 C 400.5,520.5 448.5,520.5 496.5,520.5C 496.5,568.5 496.5,616.5 496.5,664.5C 448.5,664.5 400.5,664.5 352.5,664.5C 352.5,616.5 352.5,568.5 352.5,520.5 Z"/></g>
<g><path style="opacity:1" fill="#7a4b24" d="M 423.5,578.5 C 442.249,578.095 449.416,587.095 445,605.5C 436.703,615.518 426.869,617.185 415.5,610.5C 410.303,603.189 409.137,595.189 412,586.5C 414.668,581.975 418.501,579.308 423.5,578.5 Z"/></g>
<g><path style="opacity:1" fill="#6b4220" d="M 433.5,581.5 C 442.49,585.143 445.99,591.81 444,601.5C 442.5,607 439,610.5 433.5,612C 424.323,613.91 417.656,610.743 413.5,602.5C 413.833,602.167 414.167,601.833 414.5,601.5C 420.23,604.121 425.897,604.121 431.5,601.5C 434.785,595.157 435.451,588.491 433.5,581.5 Z"/></g>
<g><path style="opacity:1" fill="#6481b3" d="M 836.5,519.5 C 836.5,567.833 836.5,616.167 836.5,664.5C 884.167,664.5 931.833,664.5 979.5,664.5C 979.833,664.5 980.167,664.5 980.5,664.5C 981.499,616.336 981.832,568.003 981.5,519.5C 982.499,567.997 982.832,616.664 982.5,665.5C 982.167,665.5 981.833,665.5 981.5,665.5C 932.833,665.5 884.167,665.5 835.5,665.5C 835.168,616.664 835.501,567.997 836.5,519.5 Z"/></g>
<g><path style="opacity:1" fill="#315aa2" d="M 836.5,519.5 C 884.833,519.5 933.167,519.5 981.5,519.5C 981.832,568.003 981.499,616.336 980.5,664.5C 980.5,616.5 980.5,568.5 980.5,520.5C 933.165,520.333 885.832,520.5 838.5,521C 885.499,521.5 932.499,521.667 979.5,521.5C 979.5,569.167 979.5,616.833 979.5,664.5C 931.833,664.5 884.167,664.5 836.5,664.5C 836.5,616.167 836.5,567.833 836.5,519.5 Z"/></g>
<g><path style="opacity:1" fill="#2c5194" d="M 908.5,576.5 C 927.836,577.002 935.336,586.668 931,605.5C 921.679,618.166 910.679,619.833 898,610.5C 890.422,599.645 891.255,589.478 900.5,580C 903.158,578.522 905.825,577.355 908.5,576.5 Z"/></g>
<g><path style="opacity:1" fill="#223f72" d="M 921.5,588.5 C 924.37,590.239 925.703,592.905 925.5,596.5C 924.393,606.968 918.726,611.468 908.5,610C 905.894,609.55 904.561,608.05 904.5,605.5C 915.566,605.1 921.233,599.434 921.5,588.5 Z"/></g>
<g><path style="opacity:1" fill="#25519f" d="M 980.5,664.5 C 980.167,664.5 979.833,664.5 979.5,664.5C 979.5,616.833 979.5,569.167 979.5,521.5C 932.499,521.667 885.499,521.5 838.5,521C 885.832,520.5 933.165,520.333 980.5,520.5C 980.5,568.5 980.5,616.5 980.5,664.5 Z"/></g>
<g><path style="opacity:1" fill="#f2f1ec" d="M 813.5,666.5 C 715.833,666.5 618.167,666.5 520.5,666.5C 520.5,714.833 520.5,763.167 520.5,811.5C 618.167,811.5 715.833,811.5 813.5,811.5C 765.005,812.833 716.171,813.5 667,813.5C 618.167,813.333 569.333,813.167 520.5,813C 519.503,763.905 519.169,714.739 519.5,665.5C 617.668,665.167 715.668,665.501 813.5,666.5 Z"/></g>
<g><path style="opacity:1" fill="#f3f3f3" d="M 813.5,666.5 C 813.5,714.833 813.5,763.167 813.5,811.5C 715.833,811.5 618.167,811.5 520.5,811.5C 520.5,763.167 520.5,714.833 520.5,666.5C 618.167,666.5 715.833,666.5 813.5,666.5 Z"/></g>
<g><path style="opacity:1" fill="#f1c946" d="M -0.5,666.5 C 11.1667,666.5 22.8333,666.5 34.5,666.5C 34.5,714.833 34.5,763.167 34.5,811.5C 22.8333,811.5 11.1667,811.5 -0.5,811.5C -0.5,763.167 -0.5,714.833 -0.5,666.5 Z"/></g>
<g><path style="opacity:1" fill="#83ad7a" d="M 983.5,666.5 C 983.5,714.833 983.5,763.167 983.5,811.5C 996.833,811.5 1010.17,811.5 1023.5,811.5C 1023.5,812.167 1023.5,812.833 1023.5,813.5C 1010.16,813.667 996.829,813.5 983.5,813C 982.944,812.617 982.611,812.117 982.5,811.5C 982.168,762.997 982.501,714.664 983.5,666.5 Z"/></g>
<g><path style="opacity:1" fill="#b3c9a8" d="M 981.5,665.5 C 981.833,665.5 982.167,665.5 982.5,665.5C 982.833,665.5 983.167,665.5 983.5,665.5C 983.5,665.833 983.5,666.167 983.5,666.5C 982.501,714.664 982.168,762.997 982.5,811.5C 981.501,763.003 981.168,714.336 981.5,665.5 Z"/></g>
<g><path style="opacity:1" fill="#f1d374" d="M -0.5,666.5 C -0.5,666.167 -0.5,665.833 -0.5,665.5C 11.5,665.5 23.5,665.5 35.5,665.5C 35.5,714.833 35.5,764.167 35.5,813.5C 23.5,813.5 11.5,813.5 -0.5,813.5C -0.5,812.833 -0.5,812.167 -0.5,811.5C 11.1667,811.5 22.8333,811.5 34.5,811.5C 34.5,763.167 34.5,714.833 34.5,666.5C 22.8333,666.5 11.1667,666.5 -0.5,666.5 Z"/></g>
<g><path style="opacity:1" fill="#508d49" d="M 983.5,665.5 C 996.833,665.5 1010.17,665.5 1023.5,665.5C 1023.5,666.167 1023.5,666.833 1023.5,667.5C 1010.5,667.5 997.5,667.5 984.5,667.5C 984.5,715.167 984.5,762.833 984.5,810.5C 997.5,810.5 1010.5,810.5 1023.5,810.5C 1023.5,810.833 1023.5,811.167 1023.5,811.5C 1010.17,811.5 996.833,811.5 983.5,811.5C 983.5,763.167 983.5,714.833 983.5,666.5C 983.5,666.167 983.5,665.833 983.5,665.5 Z"/></g>
<g><path style="opacity:1" fill="#3e8237" d="M 1023.5,667.5 C 1023.5,715.167 1023.5,762.833 1023.5,810.5C 1010.5,810.5 997.5,810.5 984.5,810.5C 984.5,762.833 984.5,715.167 984.5,667.5C 997.5,667.5 1010.5,667.5 1023.5,667.5 Z"/></g>
<g><path style="opacity:1" fill="#e9e9e9" d="M 593.5,722.5 C 608.256,721.927 616.59,728.927 618.5,743.5C 614.821,761.669 604.155,767.836 586.5,762C 576.593,755.149 573.759,745.983 578,734.5C 581.644,728.335 586.811,724.335 593.5,722.5 Z"/></g>
<g><path style="opacity:1" fill="#e9e9e9" d="M 740.5,722.5 C 755.256,721.927 763.59,728.927 765.5,743.5C 761.908,761.798 751.241,767.965 733.5,762C 723.242,754.271 720.742,744.438 726,732.5C 729.664,727.314 734.498,723.981 740.5,722.5 Z"/></g>
<g><path style="opacity:1" fill="#acacac" d="M 741.5,751.5 C 746.726,751.108 750.059,748.441 751.5,743.5C 752.743,741.036 753.743,738.37 754.5,735.5C 757.864,742.706 756.864,749.206 751.5,755C 745.169,757.26 739.169,756.593 733.5,753C 736.365,752.817 739.031,752.317 741.5,751.5 Z"/></g>
<g><path style="opacity:1" fill="#d2d2d2" d="M 597.5,750.5 C 595.565,751.81 593.565,753.143 591.5,754.5C 600.234,758.555 606.734,756.221 611,747.5C 612.415,742.182 611.081,737.848 607,734.5C 606.667,734.833 606.333,735.167 606,735.5C 605.667,738.5 605.333,741.5 605,744.5C 604.617,745.056 604.117,745.389 603.5,745.5C 604.89,739.399 604.556,733.399 602.5,727.5C 604.308,727.491 605.975,727.991 607.5,729C 619.721,745.157 616.221,755.991 597,761.5C 589.339,761.106 584.172,757.44 581.5,750.5C 581.667,749.833 581.833,749.167 582,748.5C 587.02,750.003 592.187,750.67 597.5,750.5 Z"/></g>
<g><path style="opacity:1" fill="#b3b3b3" d="M 597.5,750.5 C 599.817,749.18 601.817,747.514 603.5,745.5C 604.117,745.389 604.617,745.056 605,744.5C 605.333,741.5 605.667,738.5 606,735.5C 606.333,735.167 606.667,734.833 607,734.5C 611.081,737.848 612.415,742.182 611,747.5C 606.734,756.221 600.234,758.555 591.5,754.5C 593.565,753.143 595.565,751.81 597.5,750.5 Z"/></g>
<g><path style="opacity:1" fill="#d1d1d1" d="M 741.5,751.5 C 739.031,752.317 736.365,752.817 733.5,753C 739.169,756.593 745.169,757.26 751.5,755C 756.864,749.206 757.864,742.706 754.5,735.5C 753.743,738.37 752.743,741.036 751.5,743.5C 751.802,738.321 751.135,733.321 749.5,728.5C 751.288,728.215 752.955,728.548 754.5,729.5C 756.273,732.06 758.273,734.393 760.5,736.5C 763.558,750.592 758.058,758.925 744,761.5C 740.613,761.204 737.446,760.204 734.5,758.5C 733.288,755.698 731.621,753.198 729.5,751C 733.459,751.158 737.459,751.325 741.5,751.5 Z"/></g>
<g><path style="opacity:1" fill="#f2f1ec" d="M 351.5,1023.5 C 351.167,1023.5 350.833,1023.5 350.5,1023.5C 350.5,960.833 350.5,898.167 350.5,835.5C 302.261,835.169 254.095,835.503 206,836.5C 205.5,898.832 205.333,961.166 205.5,1023.5C 204.833,1023.5 204.167,1023.5 203.5,1023.5C 203.333,960.832 203.5,898.166 204,835.5C 204.5,835 205,834.5 205.5,834C 254.071,833.17 302.571,833.336 351,834.5C 351.5,897.499 351.667,960.499 351.5,1023.5 Z"/></g>
<g><path style="opacity:1" fill="#f3f3f3" d="M 350.5,1023.5 C 302.167,1023.5 253.833,1023.5 205.5,1023.5C 205.333,961.166 205.5,898.832 206,836.5C 254.095,835.503 302.261,835.169 350.5,835.5C 350.5,898.167 350.5,960.833 350.5,1023.5 Z"/></g>
<g><path style="opacity:1" fill="#d5e4ed" d="M 813.5,981.5 C 764.833,981.5 716.167,981.5 667.5,981.5C 667.167,981.5 666.833,981.5 666.5,981.5C 666.5,932.5 666.5,883.5 666.5,834.5C 617.833,834.5 569.167,834.5 520.5,834.5C 520.5,897.5 520.5,960.5 520.5,1023.5C 520.167,1023.5 519.833,1023.5 519.5,1023.5C 519.5,960.167 519.5,896.833 519.5,833.5C 568.833,833.5 618.167,833.5 667.5,833.5C 667.5,882.5 667.5,931.5 667.5,980.5C 716.336,980.168 765.003,980.501 813.5,981.5 Z"/></g>
<g><path style="opacity:1" fill="#3960a5" d="M -0.5,836.5 C -0.5,836.167 -0.5,835.833 -0.5,835.5C 60.1667,835.5 120.833,835.5 181.5,835.5C 181.5,898.167 181.5,960.833 181.5,1023.5C 181.167,1023.5 180.833,1023.5 180.5,1023.5C 180.5,961.167 180.5,898.833 180.5,836.5C 120.167,836.5 59.8333,836.5 -0.5,836.5 Z"/></g>
<g><path style="opacity:1" fill="#8298bd" d="M -0.5,833.5 C 60.1676,833.333 120.834,833.5 181.5,834C 182,834.5 182.5,835 183,835.5C 183.5,898.166 183.667,960.832 183.5,1023.5C 182.833,1023.5 182.167,1023.5 181.5,1023.5C 181.5,960.833 181.5,898.167 181.5,835.5C 120.833,835.5 60.1667,835.5 -0.5,835.5C -0.5,834.833 -0.5,834.167 -0.5,833.5 Z"/></g>
<g><path style="opacity:1" fill="#b5d7fa" d="M 666.5,981.5 C 666.833,981.5 667.167,981.5 667.5,981.5C 715.664,982.499 763.997,982.832 812.5,982.5C 812.5,996.167 812.5,1009.83 812.5,1023.5C 715.5,1023.5 618.5,1023.5 521.5,1023.5C 521.5,960.833 521.5,898.167 521.5,835.5C 569.5,835.5 617.5,835.5 665.5,835.5C 665.168,884.336 665.501,933.003 666.5,981.5 Z"/></g>
<g><path style="opacity:1" fill="#c2dcf5" d="M 666.5,981.5 C 665.501,933.003 665.168,884.336 665.5,835.5C 617.5,835.5 569.5,835.5 521.5,835.5C 521.5,898.167 521.5,960.833 521.5,1023.5C 521.167,1023.5 520.833,1023.5 520.5,1023.5C 520.5,960.5 520.5,897.5 520.5,834.5C 569.167,834.5 617.833,834.5 666.5,834.5C 666.5,883.5 666.5,932.5 666.5,981.5 Z"/></g>
<g><path style="opacity:1" fill="#cdcec5" d="M 1023.5,833.5 C 1023.5,833.833 1023.5,834.167 1023.5,834.5C 1009.83,834.5 996.167,834.5 982.5,834.5C 982.168,879.67 982.501,924.67 983.5,969.5C 983.5,970.167 983.167,970.5 982.5,970.5C 981.501,925.003 981.168,879.336 981.5,833.5C 995.5,833.5 1009.5,833.5 1023.5,833.5 Z"/></g>
<g><path style="opacity:1" fill="#afb2ab" d="M 1023.5,834.5 C 1023.5,834.833 1023.5,835.167 1023.5,835.5C 1010.17,835.5 996.833,835.5 983.5,835.5C 983.5,879.833 983.5,924.167 983.5,968.5C 983.5,968.833 983.5,969.167 983.5,969.5C 982.501,924.67 982.168,879.67 982.5,834.5C 996.167,834.5 1009.83,834.5 1023.5,834.5 Z"/></g>
<g><path style="opacity:1" fill="#8c928e" d="M 1023.5,835.5 C 1023.5,847.833 1023.5,860.167 1023.5,872.5C 1020.88,909.05 1007.54,941.05 983.5,968.5C 983.5,924.167 983.5,879.833 983.5,835.5C 996.833,835.5 1010.17,835.5 1023.5,835.5 Z"/></g>
<g><path style="opacity:1" fill="#315aa3" d="M -0.5,836.5 C 59.8333,836.5 120.167,836.5 180.5,836.5C 180.5,898.833 180.5,961.167 180.5,1023.5C 167.833,1023.5 155.167,1023.5 142.5,1023.5C 81.5692,1013.96 38.0692,981.294 12,925.5C 5.19872,908.301 1.03205,890.635 -0.5,872.5C -0.5,860.5 -0.5,848.5 -0.5,836.5 Z"/></g>
<g><path style="opacity:1" fill="#dfe3dc" d="M -0.5,833.5 C -0.5,833.167 -0.5,832.833 -0.5,832.5C 60.837,832.167 122.17,832.5 183.5,833.5C 184.496,896.792 184.83,960.125 184.5,1023.5C 184.167,1023.5 183.833,1023.5 183.5,1023.5C 183.667,960.832 183.5,898.166 183,835.5C 182.5,835 182,834.5 181.5,834C 120.834,833.5 60.1676,833.333 -0.5,833.5 Z"/></g>
<g><path style="opacity:1" fill-opacity="0" d="M 1023.5,872.5 C 1023.5,922.833 1023.5,973.167 1023.5,1023.5C 973.167,1023.5 922.833,1023.5 872.5,1023.5C 909.21,1020.71 941.544,1007.38 969.5,983.5C 970.167,983.5 970.5,983.167 970.5,982.5C 971.167,982.5 971.5,982.167 971.5,981.5C 975.5,978.167 979.167,974.5 982.5,970.5C 983.167,970.5 983.5,970.167 983.5,969.5C 983.5,969.167 983.5,968.833 983.5,968.5C 1007.54,941.05 1020.88,909.05 1023.5,872.5 Z"/></g>
<g><path style="opacity:1" fill-opacity="0" d="M -0.5,872.5 C 1.03205,890.635 5.19872,908.301 12,925.5C 38.0692,981.294 81.5692,1013.96 142.5,1023.5C 94.8333,1023.5 47.1667,1023.5 -0.5,1023.5C -0.5,973.167 -0.5,922.833 -0.5,872.5 Z"/></g>
<g><path style="opacity:1" fill="#e9e9e9" d="M 275.5,891.5 C 291.256,889.931 300.256,896.931 302.5,912.5C 300.142,929.025 290.809,935.525 274.5,932C 262.369,926.565 258.202,917.399 262,904.5C 264.747,898.252 269.247,893.918 275.5,891.5 Z"/></g>
<g><path style="opacity:1" fill="#2c5294" d="M 106.5,892.5 C 125.155,890.656 133.655,898.989 132,917.5C 127.321,929.959 118.487,934.459 105.5,931C 92.7907,923.491 89.624,912.991 96,899.5C 98.9978,896.262 102.498,893.929 106.5,892.5 Z"/></g>
<g><path style="opacity:1" fill="#a8d0f9" d="M 594.5,893.5 C 603,896.539 606.167,902.539 604,911.5C 603.345,913.628 602.511,915.628 601.5,917.5C 599.833,918.167 598.167,918.833 596.5,919.5C 592.033,919.867 587.7,919.367 583.5,918C 580.697,914.865 578.697,911.365 577.5,907.5C 579.153,899.181 584.153,894.181 592.5,892.5C 593.183,892.863 593.85,893.196 594.5,893.5 Z"/></g>
<g><path style="opacity:1" fill="#a7c6e8" d="M 577.5,907.5 C 578.697,911.365 580.697,914.865 583.5,918C 587.7,919.367 592.033,919.867 596.5,919.5C 594.114,920.92 591.447,921.92 588.5,922.5C 588.709,923.086 589.043,923.586 589.5,924C 605.075,928.421 612.242,922.588 611,906.5C 609.667,905.167 608.333,903.833 607,902.5C 605.746,905.976 605.079,909.642 605,913.5C 604.34,915.324 603.173,916.657 601.5,917.5C 602.511,915.628 603.345,913.628 604,911.5C 606.167,902.539 603,896.539 594.5,893.5C 608.285,891.921 615.951,898.254 617.5,912.5C 616.402,925.098 609.569,931.765 597,932.5C 582.455,930.454 575.955,922.12 577.5,907.5 Z"/></g>
<g><path style="opacity:1" fill="#8199b3" d="M 596.5,919.5 C 598.167,918.833 599.833,918.167 601.5,917.5C 603.173,916.657 604.34,915.324 605,913.5C 605.079,909.642 605.746,905.976 607,902.5C 608.333,903.833 609.667,905.167 611,906.5C 612.242,922.588 605.075,928.421 589.5,924C 589.043,923.586 588.709,923.086 588.5,922.5C 591.447,921.92 594.114,920.92 596.5,919.5 Z"/></g>
<g><path style="opacity:1" fill="#b4b4b4" d="M 280.5,919.5 C 287.303,916.909 290.303,911.909 289.5,904.5C 290.222,904.082 290.722,903.416 291,902.5C 297.051,909.415 296.884,916.249 290.5,923C 284.347,926.482 278.347,926.315 272.5,922.5C 275.447,921.92 278.114,920.92 280.5,919.5 Z"/></g>
<g><path style="opacity:1" fill="#244278" d="M 121.5,904.5 C 123.582,904.624 125.082,905.624 126,907.5C 128.336,918.485 124.003,924.818 113,926.5C 109.444,925.591 105.944,924.591 102.5,923.5C 102.5,922.5 102.5,921.5 102.5,920.5C 106.56,920.515 110.56,920.015 114.5,919C 116.346,915.999 118.346,913.165 120.5,910.5C 121.466,908.604 121.799,906.604 121.5,904.5 Z"/></g>
<g><path style="opacity:1" fill="#d3d3d3" d="M 280.5,919.5 C 278.114,920.92 275.447,921.92 272.5,922.5C 278.347,926.315 284.347,926.482 290.5,923C 296.884,916.249 297.051,909.415 291,902.5C 290.722,903.416 290.222,904.082 289.5,904.5C 289.34,902.801 289.506,901.134 290,899.5C 294.612,900.773 296.945,903.773 297,908.5C 298.721,924.443 291.555,931.276 275.5,929C 270.147,926.82 266.813,922.987 265.5,917.5C 270.29,919.034 275.29,919.701 280.5,919.5 Z"/></g>
<g><path style="opacity:1" fill="#d0d0c6" d="M 835.5,981.5 C 880.833,980.167 926.167,980.167 971.5,981.5C 971.5,982.167 971.167,982.5 970.5,982.5C 925.67,981.501 880.67,981.168 835.5,981.5 Z"/></g>
<g><path style="opacity:1" fill="#c6def3" d="M 667.5,981.5 C 716.167,981.5 764.833,981.5 813.5,981.5C 814.496,995.323 814.829,1009.32 814.5,1023.5C 813.833,1023.5 813.167,1023.5 812.5,1023.5C 812.5,1009.83 812.5,996.167 812.5,982.5C 763.997,982.832 715.664,982.499 667.5,981.5 Z"/></g>
<g><path style="opacity:1" fill="#a4a8a2" d="M 835.5,981.5 C 880.67,981.168 925.67,981.501 970.5,982.5C 970.5,983.167 970.167,983.5 969.5,983.5C 925.336,982.501 881.003,982.168 836.5,982.5C 836.5,996.167 836.5,1009.83 836.5,1023.5C 836.167,1023.5 835.833,1023.5 835.5,1023.5C 835.5,1009.5 835.5,995.5 835.5,981.5 Z"/></g>
<g><path style="opacity:1" fill="#8c928e" d="M 969.5,983.5 C 941.544,1007.38 909.21,1020.71 872.5,1023.5C 860.5,1023.5 848.5,1023.5 836.5,1023.5C 836.5,1009.83 836.5,996.167 836.5,982.5C 881.003,982.168 925.336,982.501 969.5,983.5 Z"/></g>
</svg>
