<?xml version="1.0" standalone="no"?>
<!DOCTYPE svg PUBLIC "-//W3C//DTD SVG 20010904//EN"
 "http://www.w3.org/TR/2001/REC-SVG-20010904/DTD/svg10.dtd">
<svg version="1.0" xmlns="http://www.w3.org/2000/svg"
 width="400.000000pt" height="400.000000pt" viewBox="0 0 400.000000 400.000000"
 preserveAspectRatio="xMidYMid meet">
<metadata>
Created by potrace 1.16, written by Peter Selinger 2001-2019
</metadata>
<g transform="translate(0.000000,400.000000) scale(0.100000,-0.100000)"
stroke="none">
<path style="fill:#3b5998;fill-opacity:1" d="M0 2000 l0 -2000 2000 0 2000 0 0 2000 0 2000 -2000 0 -2000 0 0
-2000z m2635 1456 c19 -8 35 -18 35 -21 0 -4 -13 -25 -28 -48 -16 -23 -54 -85
-86 -138 l-57 -97 50 -85 51 -85 72 -7 c141 -13 132 -18 223 132 44 73 85 133
91 133 13 0 47 -37 65 -70 7 -15 13 -58 12 -105 0 -107 -28 -177 -98 -253 -67
-73 -139 -109 -246 -124 l-81 -11 -35 -56 c-19 -31 -106 -173 -195 -316 -88
-143 -202 -327 -253 -410 -51 -82 -152 -247 -225 -365 -73 -118 -162 -261
-197 -317 -34 -57 -63 -109 -63 -118 0 -8 12 -50 26 -92 22 -64 25 -91 22
-149 -6 -89 -48 -184 -108 -244 -53 -53 -151 -100 -208 -100 -46 0 -82 14 -82
31 0 6 36 69 80 140 44 70 80 131 80 135 0 3 -21 44 -47 90 -53 94 -47 90
-174 98 l-85 5 -77 -127 c-42 -70 -81 -133 -86 -141 -8 -12 -13 -12 -34 2 -67
44 -77 212 -18 331 54 111 159 187 285 208 34 5 70 11 81 14 21 3 23 7 255
384 73 118 174 283 225 365 516 835 505 818 505 833 0 6 -12 47 -26 89 -43
127 -26 246 49 351 40 55 111 108 179 132 65 23 79 24 123 6z m-1035 -706 c0
-5 -106 -178 -235 -385 -129 -206 -235 -378 -235 -380 0 -3 28 -49 61 -103 34
-53 86 -137 115 -185 l54 -88 -132 -86 c-73 -47 -140 -88 -150 -91 -11 -2 -22
7 -33 29 -10 18 -80 137 -156 265 -76 128 -142 239 -145 248 -6 16 304 548
384 659 40 56 87 94 139 113 46 16 333 20 333 4z m1412 -345 c41 -66 114 -182
162 -257 47 -75 89 -144 92 -152 4 -10 -25 -65 -72 -138 -43 -68 -120 -190
-172 -273 -150 -237 -188 -290 -233 -324 -55 -40 -73 -43 -257 -39 l-153 3
161 255 c89 140 198 310 241 377 43 67 79 125 79 127 0 3 -50 85 -110 183 -61
97 -109 183 -108 190 2 7 64 54 138 103 105 70 137 87 146 77 7 -6 45 -66 86
-132z"/>
</g>
</svg>
