<?xml version="1.0" standalone="no"?>
<!DOCTYPE svg PUBLIC "-//W3C//DTD SVG 20010904//EN"
 "http://www.w3.org/TR/2001/REC-SVG-20010904/DTD/svg10.dtd">
<svg version="1.0" xmlns="http://www.w3.org/2000/svg"
 width="1024.000000pt" height="1024.000000pt" viewBox="0 0 1024.000000 1024.000000"
 preserveAspectRatio="xMidYMid meet">

<g transform="translate(0.000000,1024.000000) scale(0.100000,-0.100000)"
fill="#76504d" stroke="none">
<path fill-rule="evenodd"
d="M1740 10229 c-921 -95 -1638 -819 -1730 -1748 -14 -143 -14 -6579 0
-6722 93 -938 811 -1656 1749 -1749 143 -14 6579 -14 6722 0 938 93 1656 811
1749 1749 14 143 14 6579 0 6722 -93 938 -811 1656 -1749 1749 -129 13 -6616
11 -6741 -1z"/>

<path fill-rule="evenodd" fill="white"
d="M1740 10229 m3504 -1464 c133 -28 254 -103 290 -179 20 -42 21 -118 2 -154
-35 -66 -186 -175 -276 -198 -55 -14 -78 -14 -181 -4 -138 15 -231 10 -279
-15 -59 -30 -176 -132 -190 -165 -14 -35 -9 -103 15 -190 8 -30 25 -91 37
-135 19 -70 22 -107 22 -290 1 -196 -1 -222 -31 -380 -45 -242 -47 -263 -32
-605 12 -307 12 -309 -11 -444 -26 -150 -27 -143 36 -346 32 -103 32 -133 17
-970 -9 -495 -14 -592 -31 -700 -12 -72 -23 -206 -27 -315 -6 -172 -4 -208 20
-380 65 -478 147 -722 293 -877 71 -75 137 -117 227 -144 51 -16 90 -18 252
-16 161 2 218 -1 365 -22 324 -47 384 -45 551 19 49 20 135 47 190 61 103 26
240 88 268 120 8 11 37 57 64 104 39 66 79 114 181 215 72 72 142 145 154 164
13 19 67 120 120 225 69 135 133 243 218 366 117 169 135 203 197 375 34 96
176 205 249 191 75 -14 140 -122 152 -254 8 -87 -12 -170 -75 -321 -61 -144
-77 -201 -90 -321 -48 -434 -56 -467 -139 -615 -54 -97 -56 -103 -60 -188 -2
-53 3 -138 13 -213 20 -137 17 -168 -16 -240 -51 -108 -171 -193 -334 -234
-118 -31 -219 -35 -383 -16 -159 19 -233 14 -372 -25 -117 -33 -267 -24 -480
30 -242 61 -310 67 -516 44 -151 -16 -268 -18 -1099 -19 -996 -1 -955 1 -1420
-56 -175 -21 -278 -20 -386 3 -148 32 -239 115 -239 219 0 34 7 48 42 86 77
83 162 117 333 129 182 14 303 55 398 137 55 47 199 214 225 261 15 28 17 57
14 212 -2 155 1 204 24 350 36 236 35 354 -6 555 -42 207 -45 277 -26 603 9
153 16 362 16 465 0 103 5 311 11 462 15 370 14 523 -5 730 -13 138 -17 272
-15 630 l2 455 -37 160 c-50 216 -53 267 -26 460 19 138 21 168 10 218 -20 98
-75 193 -159 278 -111 112 -117 114 -292 114 l-147 1 -85 42 c-131 65 -213
166 -224 278 -5 50 -4 55 24 81 21 19 74 42 174 75 l144 47 100 -9 c55 -6 181
-22 280 -36 264 -39 404 -32 893 45 269 42 265 42 517 61 294 22 460 24 549 5z"/>

</g>
</svg>
