<?xml version="1.0" encoding="UTF-8" standalone="no"?>
<!-- Created with Inkscape (http://www.inkscape.org/) 
   width="602.36218"
   height="602.36218"
-->
<svg
   xmlns:svg="http://www.w3.org/2000/svg"
   xmlns="http://www.w3.org/2000/svg"
   version="1.0"
   width="120"
   height="120"
   viewBox="0 0 602.36218 602.36218" 
   id="svg2407">
  <defs
     id="defs2409" />
  <g
     id="g6948">
    <path
       d="M 17.716527,584.6513 L 493.20539,584.6513 L 493.20539,109.16248 L 17.716527,109.16248 L 17.716527,584.6513 z"
       id="path5844"
       style="fill:#000000;fill-opacity:1;fill-rule:nonzero;stroke:none" />
    <path
       d="M 109.18842,462.06895 L 88.069273,463.78131 L 88.64006,505.44881 C 88.64006,505.44881 113.78899,506.78432 119.74799,507.16117 C 125.68429,507.52647 131.83723,507.6863 133.73228,514.8668 C 135.78724,522.65223 126.84856,528.28028 123.7435,528.28031 C 133.12713,528.28031 130.96959,528.28029 138.01319,528.28031 C 143.74391,527.22994 150.2508,520.28929 149.42894,510.01511 C 148.34446,496.43024 137.97892,493.17685 126.88283,493.17687 L 130.38998,470.98459 L 109.18842,462.06895 z M 59.529891,501.45329 C 55.728326,506.05386 51.927,513.26849 54.107408,521.14547 C 60.625803,543.15516 95.580838,552.81276 110.32999,553.39497 L 108.61763,527.70952 C 108.61764,527.70953 84.758704,530.70045 72.658007,518.00613 C 67.532334,512.65202 68.514207,507.19553 72.372613,502.30947 C 67.852075,502.11539 62.566372,501.57887 59.529891,501.45329 z"
       id="path5846"
       style="fill:#ffffff;fill-opacity:1;fill-rule:nonzero;stroke:none" />
    <path
       d="M 109.15683,493.1997 L 584.64566,493.1997 L 584.64566,17.71088 L 109.15683,17.71088 L 109.15683,493.1997 z"
       id="path5850"
       style="fill:#b00049;fill-opacity:1;fill-rule:nonzero;stroke:none" />
    <path
       d="M 149.375,317.15625 C 145.25607,317.23618 140.92499,318.89378 138.5625,322.4375 C 136.57656,325.42756 136.74999,329.6351 136.75,333.09375 L 132.0625,333.09375 L 132.0625,342.09375 L 136.75,342.09375 L 136.75,372.21875 L 148.375,372.21875 L 148.375,342.09375 L 155.5,342.09375 L 155.5,333.0625 L 148.375,333.0625 L 148.375,332.21875 C 148.375,328.80473 148.37865,326.10945 152.5625,326.34375 L 156.53125,326.59375 L 156.53125,317.6875 L 151.125,317.21875 C 150.55181,317.16715 149.96342,317.14483 149.375,317.15625 z M 178.78125,331.25 C 174.34093,331.41216 172.15044,335.546 171.03125,339.5625 L 170.90625,339.5625 L 170.90625,332.03125 L 160.0625,332.03125 L 160.0625,372.21875 L 171.6875,372.21875 L 171.6875,356.875 C 171.6875,349.77919 172.78648,342.5515 181.65625,343.03125 L 181.65625,331.40625 L 179.6875,331.28125 C 179.37092,331.25545 179.07727,331.23919 178.78125,331.25 z M 203.4375,331.28125 C 194.94707,331.28125 185.44158,334.12605 184.28125,343.84375 L 195.28125,344.875 C 195.28125,340.90313 198.53473,338.99999 202.25,339 C 203.97933,339 205.94231,339.57857 206.96875,340.90625 C 208.17369,342.4236 208.03125,344.48943 208.03125,346.21875 L 208.03125,347.15625 C 203.09988,347.64716 196.71051,347.96711 192.125,349.71875 C 186.82546,351.67121 183.09375,355.71181 183.09375,361.625 C 183.09375,369.24519 188.62071,372.99999 195.75,373 C 201.75243,373 205.20649,370.71044 208.53125,365.96875 C 208.45315,368.02163 208.614,370.16586 209.09375,372.21875 L 209.09375,372.25 L 220.65625,372.25 C 220.00915,370.27523 219.875,368.29394 219.875,366.21875 L 219.875,347.5 C 219.875,342.68021 220.28431,338.26227 216.15625,334.9375 C 212.90958,332.25984 207.50977,331.28124 203.4375,331.28125 z M 248.5,331.28125 C 242.64261,331.28125 239.31393,333.71157 236.9375,338.84375 L 236.78125,338.84375 L 236.78125,332.03125 L 225.78125,332.03125 L 225.78125,372.21875 L 237.4375,372.21875 L 237.4375,350.65625 C 237.4375,348.10131 237.58746,345.80727 238.78125,343.53125 C 239.71843,341.6792 241.60338,340.53124 243.65625,340.53125 C 249.51365,340.53125 248.96875,346.52818 248.96875,350.65625 L 248.96875,372.21875 L 260.59375,372.21875 L 260.59375,347.40625 C 260.59375,343.78025 260.61533,338.68872 258.40625,335.6875 C 256.02982,332.45198 252.29337,331.28124 248.5,331.28125 z M 284.46875,331.28125 C 271.80562,331.28125 264.37501,340.22513 264.375,352.53125 C 264.375,364.39107 271.57778,372.99999 283.75,373 C 293.55694,373 301.08292,367.06804 302.03125,357.09375 L 290.9375,356.5 C 290.53585,360.2041 288.48076,363.43749 284.375,363.4375 C 277.72546,363.4375 277.68751,356.49164 277.6875,351.59375 C 277.6875,346.46156 278.45084,340.12499 284.84375,340.125 C 289.04992,340.125 290.93751,343.64188 290.9375,347.3125 L 302.03125,346.6875 C 301.22795,337.29335 293.7848,331.28126 284.46875,331.28125 z M 324,331.28125 C 311.50423,331.28125 304.46876,340.84778 304.46875,352.71875 C 304.46875,364.65668 312.28531,373.03126 324.3125,373.03125 C 337.92396,373.03125 342.56249,361.1846 342.5625,359.1875 L 331.84375,358.40625 C 331.84375,362.12151 328.2354,364.71874 324.6875,364.71875 C 319.62226,364.71875 316.96874,360.82429 316.96875,356.09375 L 317.03125,354.125 L 342.78125,354.125 C 342.89282,348.66926 342.01226,342.9806 338.6875,338.40625 C 335.36273,333.83191 329.62308,331.28124 324,331.28125 z M 324.46875,338.875 C 329.55632,338.875 330.94428,342.92109 331.15625,347.25 L 316.96875,347.25 C 317.33693,342.68681 319.35886,338.875 324.46875,338.875 z M 208.03125,353.03125 L 208.03125,354.59375 C 208.03125,357.44993 208.07979,359.7888 206.40625,362.34375 C 205.07857,364.37431 202.93892,365.65626 200.5625,365.65625 C 197.31583,365.65625 195.4375,363.51232 195.4375,360.34375 C 195.4375,354.50867 203.57963,353.49985 208.03125,353.03125 z M 350.625,365.96875 L 350.625,383.90625 L 369.15625,383.90625 L 369.15625,365.96875 L 350.625,365.96875 z M 532.125,388.40625 C 512.17639,388.40625 500.90626,403.73408 500.90625,422.65625 C 500.90625,441.73461 513.44621,455.09376 532.625,455.09375 C 554.36987,455.09375 561.84376,436.15518 561.84375,433.03125 L 544.65625,431.75 C 544.65625,437.70781 538.9713,441.87501 533.28125,441.875 C 525.20363,441.875 520.90626,435.6693 520.90625,428.09375 L 521.03125,424.96875 L 521.03125,424.9375 L 562.1875,424.9375 C 562.32138,416.21277 560.92454,407.13144 555.625,399.8125 C 550.3143,392.48239 541.0952,388.40625 532.125,388.40625 z M 167.6875,388.4375 C 159.33096,388.4375 153.14399,391.98694 149.875,399.5625 L 149.625,399.5625 L 149.625,389.75 L 149.625,389.71875 L 131.9375,389.71875 L 131.9375,453.84375 L 150.5,453.84375 L 150.5,419.90625 C 150.5,412.94432 150.10376,403.34376 159.84375,403.34375 C 169.44988,403.34375 168.1875,413.18977 168.1875,419.90625 L 168.1875,453.84375 L 186.71875,453.84375 L 186.71875,419.90625 C 186.71875,416.49223 186.62547,411.42978 188.03125,408.40625 C 189.40355,405.38272 192.80246,403.46876 196.09375,403.46875 C 199.98752,403.46875 203.05838,404.60628 204.0625,408.65625 C 204.68729,411.03267 204.4375,417.3513 204.4375,419.90625 L 204.4375,453.84375 L 223.03125,453.84375 L 223.03125,413.8125 C 223.03125,407.37495 223.86686,400.07419 219.59375,395.03125 C 215.80039,390.46806 209.61637,388.43751 203.9375,388.4375 C 195.99376,388.4375 188.53014,391.98694 185.25,399.5625 C 181.44548,391.97578 176.15562,388.43751 167.6875,388.4375 z M 317.34375,388.4375 C 303.70997,388.4375 289.96876,394.13034 289.96875,409.90625 C 289.96875,417.99503 294.99588,424.55223 302.59375,427.21875 C 306.61025,428.60221 317.22695,430.51802 321.65625,431.03125 C 325.08143,431.41059 328.87499,432.13093 328.875,436.4375 C 328.875,441.22383 321.15059,442.50002 317.625,442.5 C 311.68951,442.5 304.74958,440.48663 303.5,433.9375 L 287.4375,436.15625 C 290.87383,450.57101 303.35051,455.09374 316.75,455.09375 C 323.8235,455.09375 330.88591,453.85132 336.6875,449.8125 C 342.13209,445.89642 345.28124,439.97542 345.28125,433.28125 C 345.28125,404.37362 306.78125,418.01603 306.78125,406 C 306.78125,401.3364 312.59279,400.31249 316.375,400.3125 C 322.43322,400.3125 327.22378,402.8034 328.875,408.90625 L 342.65625,405.25 C 338.20463,393.26745 330.00688,388.43751 317.34375,388.4375 z M 400.5,388.4375 C 381.55552,388.4375 374.46874,405.12168 374.46875,421.65625 C 374.46875,438.22431 380.43735,455.12498 399.75,455.125 C 406.70077,455.125 410.71332,452.50935 414.40625,447.1875 L 414.40625,475.46875 L 432.96875,475.46875 L 432.96875,400.21875 L 433.875,389.71875 L 423.75,389.71875 C 422.62315,392.98773 420.9993,395.92058 418.96875,398.6875 C 414.42787,391.01153 409.20241,388.43751 400.5,388.4375 z M 350.625,389.71875 L 350.625,453.875 L 369.15625,453.875 L 369.15625,389.71875 L 350.625,389.71875 z M 229.84375,389.75 L 229.84375,430.15625 C 229.84375,436.3372 229.47442,442.38133 233,447.9375 C 236.67063,453.73911 242.23878,455.12498 248.6875,455.125 C 257.38991,455.125 263.96531,450.96377 267,442.875 L 267.21875,442.875 L 267.21875,453.875 L 284.40625,453.875 L 284.40625,389.75 L 265.84375,389.75 L 265.84375,424.1875 C 265.84375,427.45648 266.07101,431.15053 264.84375,434.0625 C 263.19252,437.8447 259.65038,440.21874 255.5,440.21875 C 248.92856,440.21875 248.40626,435.29959 248.40625,430.15625 L 248.40625,389.75 L 229.84375,389.75 z M 440.8125,389.75 L 440.8125,430.15625 C 440.8125,436.3372 440.43199,442.38133 443.96875,447.9375 C 447.62823,453.73911 453.18744,455.12498 459.625,455.125 C 468.32741,455.125 474.92513,450.96377 477.9375,442.875 L 478.1875,442.875 L 478.1875,453.875 L 495.375,453.875 L 495.375,389.75 L 476.8125,389.75 L 476.8125,424.1875 C 476.8125,427.45648 477.08438,431.15053 475.8125,434.0625 C 474.17243,437.8447 470.61913,440.21874 466.46875,440.21875 C 459.89731,440.21875 459.375,435.29959 459.375,430.15625 L 459.375,389.75 L 440.8125,389.75 z M 532.875,400.59375 C 540.95262,400.59375 543.26574,407.01797 543.65625,413.96875 L 520.90625,413.96875 C 521.51988,406.62748 524.67466,400.59375 532.875,400.59375 z M 404.6875,401.21875 C 413.03289,401.21875 414.78126,409.5246 414.78125,416.21875 L 414.8125,416.21875 L 414.8125,425.84375 C 414.8125,429.74868 414.42111,433.6708 412.15625,437.0625 C 410.50503,439.7067 407.4275,441.99999 404.28125,442 C 400.63293,442 397.36336,439.45649 395.96875,436.1875 C 394.17248,432.29372 394.15626,426.09672 394.15625,421.65625 C 394.15625,414.47118 394.31154,401.21875 404.6875,401.21875 z"
       id="path246"
       style="fill:#ffffff" />
  </g>
</svg>
