<svg xmlns="http://www.w3.org/2000/svg" viewBox="0 0 209.923 209.923">
  <path fill="#00684b" d="M104.962 209.923a104.962 104.962 0 1 1 104.961-104.961 105.075 105.075 0 0 1-104.961 104.961Z"/>
  <path fill="#fff" d="M121.137 103.378h-1.052c-.17.984-.373 3.733-2.036 5.418-1.493 1.516-2.726 1.652-4.66 1.652h-5.396V98.706h2.41c3.269 0 3.721 2.364 4.241 4.932h.94V93.016h-.94c-.52 2.647-.87 4.627-4.717 4.627h-1.934V86.795h5.237c4.966 0 5.475 3.54 6.075 5.746h1.04V85.63h-20.259v1.13h3.824v23.688h-3.824v1.13h21.051zm-43.833 7.07c1.414 0 2.432 1.855 7.07 1.855a9.185 9.185 0 0 0 6.595-2.704 8.258 8.258 0 0 0 2.466-5.803c0-9.513-14.977-6.719-14.977-13.381 0-2.953 2.59-4.355 5.08-4.355 3.868 0 5.78 3.156 6.435 6.526h1.052V85.63h-.995c-.124.803-.396 1.007-.735 1.007-.837 0-2.59-1.697-5.758-1.697a7.273 7.273 0 0 0-7.59 7.432c0 7.296 9.05 6.787 12.726 10.044a4.287 4.287 0 0 1 1.459 3.303 5.237 5.237 0 0 1-1.2 3.45 5.656 5.656 0 0 1-4.524 2.014c-5.101 0-6.787-3.156-7.85-7.805h-1.131v8.235h.995c.158-1.03.679-1.131.939-1.131m23.822 20.655c2.138 2.16 2.625 5.475 2.885 7.07h1.357c.26-1.595.747-4.91 2.873-7.07 2.263-2.33 4.978-2.5 7.183-2.5h66.185V127.2H115.38c-3.564 0-5.758.453-8.167 2.907a9.264 9.264 0 0 0-2.512 5.17 9.264 9.264 0 0 0-2.466-5.192c-2.42-2.455-4.615-2.907-8.167-2.907h-66.66v1.436h66.604c2.262 0 4.886.17 7.171 2.5M45.156 85.63v1.165h3.767v23.653h-3.767v1.165h8.8v-1.165H50.18V88.707l14.513 23.12h1.255V86.796h3.767V85.63h-8.8v1.165h3.778v17.431L53.007 85.63zm-9.852 24.818V86.795h3.778V85.63H27.408v1.165h3.812v23.653h-3.812v1.165h11.674v-1.165zm142.29-21.945a15.497 15.497 0 0 0-9.852-2.986c-2.138 0-4.299.113-6.437.113h-4.072v1.13H161v23.688h-3.767v1.13h3.507c3.8 0 5.655.16 7.126.16 4.344 0 7.579-.623 10.735-3.824a12.827 12.827 0 0 0 3.721-9.14 12.647 12.647 0 0 0-4.728-10.271zm-2.986 19.92c-1.799 1.821-4.05 2.262-6.787 2.262-.984 0-2.715-.158-2.715-.158V86.772h2.613a9.377 9.377 0 0 1 7.703 3.394c1.72 2.262 2.353 5.769 2.353 8.823-.034 4.355-1.493 7.67-3.224 9.434zm-25.203 2.025-9.264-25.293h-1.312l-9.208 25.293h-3.088v1.13h8.009v-1.13h-3.564l2.783-7.919h8.37l2.829 7.919h-3.563v1.13h11.108v-1.13zm-15.225-9.05 3.823-10.35 3.767 10.362z"/>
</svg>
