<?xml version="1.0" encoding="utf-8"?>
<!-- Generator: Adobe Illustrator 16.0.3, SVG Export Plug-In . SVG Version: 6.00 Build 0)  -->
<!DOCTYPE svg PUBLIC "-//W3C//DTD SVG 1.1//EN" "http://www.w3.org/Graphics/SVG/1.1/DTD/svg11.dtd">
<svg version="1.1" id="Calque_1" xmlns="http://www.w3.org/2000/svg" xmlns:xlink="http://www.w3.org/1999/xlink" 
     x="0px" y="0px" width="120px" height="78px" 
	 viewBox="100 0 412 340" xml:space="preserve">
<g>
	<path d="M88.508,324.527l1.714,1.714c7.071-7.854,16.743-13.45,30.676-13.333c26.039,0.214,48.628,12.913,73.764,16.073
		l85.753-55.048l-2.592-2.592c-14.243,10.502-31.844,10.669-32.927,10.966c-0.192,0.009-0.363,0.019-0.502,0.022
		c-32.633,1.066-53.754-11.352-82.972-11.595C124.405,270.43,92.283,294.549,88.508,324.527 M473.023,256.95
		c-0.218-24.28-0.009-139.492-0.009-139.492c0.148-9.454,0.925-21.184,3.661-28.902c4.72-13.302,23.584-28.927,35.029-36.696
		c0,0-0.013-0.032-0.025-0.073l-2.755-2.755c-4.224,3.223-14.698,12.491-27.198,5.944c0,0-58.893-40.14-60.629-40.152
		c0,0-58.25,36.222-59.658,36.134c0,0-49.811-36.27-51.02-36.286c0,0-55.276,31.721-56.031,31.21
		c-3.432-14.54-12.27-21.272-14.022-22.778c-4.498-3.87-11.215-7.068-18.583-7.797c-18.504-1.821-29.954,3.807-42.693,8.021
		c0,0-22.299,8.144-27.816,9.129c-4.672,0.957-7.784,1.048-10.704-1.319c-4.053-3.141-2.333-8.169-0.366-11.582
		c0.909-1.572,2.118-3.106,3.141-4.448c0.802-1.044,6.935-8.352,8.271-10.003l-1.944-1.945c-6.828,6.023-20.843,17.194-27.248,24.23
		l-0.035-0.019c0,0-14.407,13.627-16.702,27.914c-1.237,7.687,0.695,19.761,11.348,25.664c11.617,6.439,28.896,1.761,28.896,1.761
		s20.303-6.136,30.222-8.892c4.265-1.184,22.055-7.522,22.055,8.874l0.199,117.657c0.136,15.758,0.436,33.106-2.39,44.635
		c-2.434,14.18-8.444,17.302-9.656,19.028l2.342,2.346c6.364-3.693,46.191-27.688,46.191-27.688
		c8.772-5.215,13.447-12.033,15.029-14.975c5.303-9.881,5.262-23.905,5.133-38.139l-0.079-127.462
		c0.066-8.324,6.547-21.813,30.743-2.188l23.094,16.266c0.732,10.088,0.291,190.181,0.291,190.181
		c0.139,15.755,1.533,33.104-1.291,44.632c-2.756,14.167-8.419,17.342-9.48,19.085l2.383,2.383
		c6.146-3.64,44.329-27.778,44.329-27.778c8.769-5.215,13.447-12.033,15.028-14.975c5.3-9.881,5.259-23.906,5.133-38.139
		c-0.114-12.801-0.034-181.374-0.034-181.374c-1.305-15.755,9.693-23.855,24.277-14.442c9.504,5.029,56.159,34.126,56.159,34.126
		c-23.937,12.803-27.282,32.652-27.75,51.731c-0.228,9.419-0.031,131.436-0.031,131.436c-0.051,12.472-1.266,25.616,3.062,35.642
		c4.669,9.334,31.368,24.013,31.368,24.013c1.407,0.013,38.126-21.008,53.113-29.622l18.122-9.758l-2.601-2.604
		c-14.54,8.952-20.698,8.33-25.55,7.572l-0.01,0.007C474.451,289.06,473.1,265.641,473.023,256.95"/>
</g>
</svg>
