<?xml version="1.0" standalone="no"?>
<!DOCTYPE svg PUBLIC "-//W3C//DTD SVG 20010904//EN"
 "http://www.w3.org/TR/2001/REC-SVG-20010904/DTD/svg10.dtd">
<svg version="1.0" xmlns="http://www.w3.org/2000/svg"
 width="256.000000pt" height="256.000000pt" viewBox="0 0 256.000000 256.000000"
 preserveAspectRatio="xMidYMid meet">

<g transform="translate(0.000000,256.000000) scale(0.100000,-0.100000)"
fill="#000000" stroke="none">
<path d="M156 2550 c-74 -23 -140 -99 -151 -174 -3 -22 -5 -531 -3 -1131 3
-1201 -2 -1113 64 -1179 66 -66 -27 -61 1214 -61 1241 0 1148 -5 1214 61 66
66 61 -27 61 1214 0 1241 5 1148 -61 1214 -66 66 25 61 -1199 63 -611 1 -1123
-2 -1139 -7z m1153 -441 c96 -34 44 -124 -70 -121 -44 1 -63 -3 -84 -20 -25
-19 -26 -25 -19 -62 8 -46 8 -111 0 -343 -4 -89 -2 -180 3 -203 6 -25 5 -139
0 -298 -9 -222 -8 -267 6 -336 31 -152 60 -179 201 -191 55 -5 115 -8 134 -8
57 0 152 33 174 61 12 13 40 45 62 71 23 25 53 69 67 96 14 28 40 70 56 95 17
25 31 50 31 57 0 17 50 73 65 73 19 0 45 -40 45 -70 0 -14 -8 -47 -19 -75 -10
-27 -22 -79 -25 -114 -4 -36 -17 -83 -28 -105 -16 -32 -19 -50 -14 -93 4 -32
2 -62 -5 -74 -18 -34 -93 -61 -158 -58 -31 2 -79 0 -107 -4 -34 -6 -71 -4
-115 6 -53 12 -121 12 -404 5 -473 -14 -442 -14 -465 7 -45 41 -12 79 80 91
45 6 62 14 98 48 44 42 44 42 49 126 3 47 5 101 5 120 0 19 -3 231 -6 470 -2
239 -9 452 -14 472 -5 21 -7 66 -5 101 5 60 4 65 -26 99 -26 30 -39 36 -81 40
-56 6 -110 45 -110 80 0 33 63 51 150 43 94 -10 152 -7 260 10 107 16 227 18
269 4z"/>
</g>
</svg>
