<?xml version="1.0" standalone="no"?>
<!DOCTYPE svg PUBLIC "-//W3C//DTD SVG 20010904//EN"
 "http://www.w3.org/TR/2001/REC-SVG-20010904/DTD/svg10.dtd">
<svg version="1.0" xmlns="http://www.w3.org/2000/svg"
 width="154.000000pt" height="108.000000pt" viewBox="0 0 154.000000 108.000000"
 preserveAspectRatio="xMidYMid meet">
<metadata>
Created by potrace 1.10, written by Peter Selinger 2001-2011
</metadata>
<g transform="translate(0.000000,108.000000) scale(0.100000,-0.100000)"
fill="#000000" stroke="none">
<path d="M140 555 l0 -405 650 0 650 0 0 405 0 405 -650 0 -650 0 0 -405z
m1235 0 l0 -335 -585 0 -585 0 0 335 0 335 585 0 585 0 0 -335z"/>
<path d="M895 636 c-47 -21 -95 -79 -106 -125 -18 -81 25 -171 98 -207 53 -26
243 -27 289 -2 134 73 134 262 2 327 -37 17 -62 21 -149 21 -65 -1 -115 -6
-134 -14z m272 -72 c31 -20 46 -51 46 -96 0 -91 -41 -118 -180 -118 -116 0
-154 16 -173 75 -26 80 15 145 98 155 75 8 185 0 209 -16z"/>
<path d="M969 531 c-62 -63 -21 -151 71 -151 74 0 110 103 54 155 -38 35 -87
34 -125 -4z m91 -31 c23 -23 25 -39 7 -64 -19 -26 -58 -17 -77 17 -14 27 -14
29 9 48 29 24 36 24 61 -1z"/>
</g>
</svg>
