<?xml version="1.0" encoding="UTF-8" standalone="no"?>
<svg
   width="700"
   height="180.3046"
   viewBox="0 0 699.99999 180.3046"
   class="logo"
   version="1.1"
   id="svg194"
   sodipodi:docname="Logo So Foot.svg"
   xml:space="preserve"
   inkscape:version="1.2 (dc2aeda, 2022-05-15)"
   xmlns:inkscape="http://www.inkscape.org/namespaces/inkscape"
   xmlns:sodipodi="http://sodipodi.sourceforge.net/DTD/sodipodi-0.dtd"
   xmlns="http://www.w3.org/2000/svg"
   xmlns:svg="http://www.w3.org/2000/svg"><defs
     id="defs198" /><sodipodi:namedview
     id="namedview196"
     pagecolor="#ffffff"
     bordercolor="#000000"
     borderopacity="0.25"
     inkscape:showpageshadow="2"
     inkscape:pageopacity="0.0"
     inkscape:pagecheckerboard="0"
     inkscape:deskcolor="#d1d1d1"
     showgrid="false"
     inkscape:zoom="0.5730152"
     inkscape:cx="-71.551331"
     inkscape:cy="27.049893"
     inkscape:window-width="1920"
     inkscape:window-height="877"
     inkscape:window-x="0"
     inkscape:window-y="25"
     inkscape:window-maximized="0"
     inkscape:current-layer="svg194" /><path
     id="path428"
     style="stroke-width:2.5813"
     d="M 426.38086 0 C 394.78564 0 380.20117 20.16042 380.20117 44.966797 L 380.20117 135.3125 C 380.20117 160.09307 394.78564 180.2793 426.38086 180.2793 C 457.97608 180.2793 472.56055 160.11888 472.56055 135.3125 L 472.56055 44.966797 C 472.53474 20.16042 457.97608 0 426.38086 0 z M 426.45898 26.251953 C 438.59113 26.251953 442.48828 32.576405 442.48828 45.689453 L 442.41016 134.61523 C 442.41016 147.72829 438.51301 154.05273 426.38086 154.05273 C 414.24871 154.05273 410.42773 147.72829 410.42773 134.61523 L 410.42773 45.689453 C 410.42773 32.576405 414.32684 26.251953 426.45898 26.251953 z " /><path
     id="path420"
     style="stroke-width:2.5813"
     d="M 161.82227 0 C 130.22705 0 115.64258 20.16042 115.64258 44.966797 L 115.64258 135.3125 C 115.64258 160.09307 130.22705 180.2793 161.82227 180.2793 C 193.41748 180.2793 208.00195 160.04102 208.00195 135.33789 L 208.08008 135.23438 L 208.08008 44.888672 C 208.00265 20.159734 193.41748 0 161.82227 0 z M 161.90039 26.251953 C 174.05835 26.251953 177.92969 32.576405 177.92969 45.689453 L 177.92969 134.51172 C 177.92969 147.62477 174.03254 153.94922 161.90039 153.94922 C 149.76823 153.94922 145.86914 147.62477 145.86914 134.51172 L 145.86914 45.689453 C 145.86914 32.576405 149.74242 26.251953 161.90039 26.251953 z " /><path
     id="path414"
     style="stroke-width:2.5813"
     d="M 547.88281 0 C 516.26178 0 501.70313 20.16042 501.70312 44.966797 L 501.70312 135.3125 C 501.70312 160.09307 516.28759 180.2793 547.88281 180.2793 C 579.47804 180.2793 594.0625 160.11888 594.0625 135.3125 L 594.0625 44.966797 C 594.03669 20.16042 579.45222 0 547.88281 0 z M 547.7793 26.251953 C 559.91145 26.251953 563.81055 32.576405 563.81055 45.689453 L 563.91406 134.61523 C 563.91406 147.72829 560.01497 154.05273 547.88281 154.05273 C 535.75066 154.05273 531.75 147.72829 531.75 134.61523 L 531.75 45.689453 C 531.75 32.576405 535.64715 26.251953 547.7793 26.251953 z " /><path
     style="stroke-width:2.5813"
     d="M 611.53846,2.4264326 V 28.678369 h 29.16882 V 177.87816 h 30.1239 V 28.678369 H 700 V 2.4264326 Z"
     id="path424" /><path
     style="stroke-width:2.5813"
     d="m 92.927207,135.33815 c 0,-47.625192 -61.228704,-61.95147 -61.228704,-91.843054 0,-10.918947 5.343314,-17.24316 15.074858,-17.24316 6.814662,0 14.816727,4.362416 16.029943,19.437274 L 91.37842,42.54001 C 88.693856,17.733609 74.109448,0 49.561177,0 19.927723,0 2.9168818,15.797625 2.9168818,43.727414 c 0,50.309757 61.2287042,59.525036 61.2287042,94.295306 0,10.45431 -7.04698,16.02994 -17.501291,16.02994 -9.731543,0 -16.778523,-8.75065 -18.069179,-26.48426 L 0,131.64688 c 1.2132163,26.30356 17.24316,48.65771 45.198761,48.65771 27.955601,0 47.728446,-16.02994 47.728446,-44.96644"
     id="path422" /><path
     style="stroke-width:2.5813"
     d="m 307.17605,28.678369 h 53.9494 V 2.4264326 H 276.9747 V 177.9556 h 30.20135 V 100.10325 H 347.4445 V 73.87713 h -40.26845 z"
     id="path416" /></svg>
