<svg xmlns="http://www.w3.org/2000/svg" xmlns:xlink="http://www.w3.org/1999/xlink" viewBox="0 0 800 800" width="800" height="800" preserveAspectRatio="xMidYMid meet"
    style="width: 100%; height: 100%; transform: translate3d(0px, 0px, 0px); content-visibility: visible;">
    <defs>
        <clipPath id="__lottie_element_2153">
            <rect width="800" height="800" x="0" y="0"></rect>
        </clipPath>
    </defs>
    <g clip-path="url(#__lottie_element_2153)">
        <g transform="matrix(1,0,0,1,0,0)" opacity="1" style="display: block;">
            <g opacity="1" transform="matrix(1,0,0,1,400,399.2909851074219)">
                <path fill="rgb(255,255,255)" fill-opacity="1"
                    d=" M-0.9890000224113464,188.13699340820312 C-12.357000350952148,188.13699340820312 -23.013999938964844,184.4029998779297 -32.15800094604492,177.27499389648438 C-32.15800094604492,177.27499389648438 -340.4309997558594,168.97300720214844 -340.4309997558594,168.97300720214844 C-345.10699462890625,168.8470001220703 -349.4930114746094,166.6820068359375 -352.4360046386719,163.04800415039062 C-355.3789978027344,159.41200256347656 -356.5840148925781,154.66900634765625 -355.7330017089844,150.06900024414062 C-355.60699462890625,149.38699340820312 -342.9590148925781,81.08100128173828 -329.17999267578125,13.61400032043457 C-321.0660095214844,-26.117000579833984 -314.1440124511719,-57.827999114990234 -308.6080017089844,-80.63700103759766 C-305.21099853515625,-94.62999725341797 -302.38800048828125,-105.10099792480469 -299.97601318359375,-112.6510009765625 C-297.1090087890625,-121.6240005493164 -292.7770080566406,-135.1840057373047 -279.5589904785156,-135.57699584960938 C-279.4010009765625,-135.58099365234375 -279.24200439453125,-135.5850067138672 -279.0840148925781,-135.5850067138672 C-279.0840148925781,-135.5850067138672 -278.260986328125,-135.5850067138672 -278.260986328125,-135.5850067138672 C-278.260986328125,-135.5850067138672 -241.6959991455078,-169.95199584960938 -241.6959991455078,-169.95199584960938 C-235.28199768066406,-175.9810028076172 -225.2030029296875,-175.6959991455078 -219.13900756835938,-169.31399536132812 C-217.36500549316406,-167.447998046875 -210.843994140625,-163.2830047607422 -188.66299438476562,-164.96299743652344 C-170.54299926757812,-166.33399963378906 -148.23899841308594,-171.0959930419922 -126.66999816894531,-175.70199584960938 C-104.18499755859375,-180.5030059814453 -82.94599914550781,-185.03900146484375 -64.625,-186.4080047607422 C-41.50400161743164,-188.13699340820312 -22.042999267578125,-182.7790069580078 -6.784999847412109,-170.48899841308594 C-4.513000011444092,-168.65899658203125 -2.4539999961853027,-166.76199340820312 -0.5899999737739563,-164.8459930419922 C1.2730000019073486,-166.76199340820312 3.3329999446868896,-168.65899658203125 5.604000091552734,-170.48899841308594 C20.86400032043457,-182.7790069580078 40.327999114990234,-188.13499450683594 63.44599914550781,-186.4080047607422 C81.76399993896484,-185.03900146484375 103,-180.50399780273438 125.48200225830078,-175.70199584960938 C147.052001953125,-171.0959930419922 169.35499572753906,-166.33399963378906 187.4739990234375,-164.96299743652344 C209.64999389648438,-163.2830047607422 216.17100524902344,-167.44400024414062 217.9429931640625,-169.31100463867188 C224.00599670410156,-175.69400024414062 234.08599853515625,-175.98300170898438 240.5019989013672,-169.95199584960938 C240.5019989013672,-169.95199584960938 277.0710144042969,-135.5850067138672 277.0710144042969,-135.5850067138672 C277.0710144042969,-135.5850067138672 279.0840148925781,-135.5850067138672 279.0840148925781,-135.5850067138672 C279.24200439453125,-135.5850067138672 279.3999938964844,-135.58099365234375 279.5580139160156,-135.57699584960938 C292.7760009765625,-135.1840057373047 297.1080017089844,-121.6240005493164 299.9739990234375,-112.6510009765625 C302.3869934082031,-105.10099792480469 305.2099914550781,-94.62999725341797 308.6050109863281,-80.63700103759766 C314.1419982910156,-57.827999114990234 321.0639953613281,-26.117000579833984 329.1789855957031,13.61400032043457 C342.9580078125,81.08100128173828 355.60699462890625,149.38699340820312 355.7330017089844,150.06900024414062 C356.5840148925781,154.66900634765625 355.3789978027344,159.41000366210938 352.4360046386719,163.04600524902344 C349.4930114746094,166.68099975585938 345.1059875488281,168.8470001220703 340.4309997558594,168.97300720214844 C340.4309997558594,168.97300720214844 30.70599937438965,177.31399536132812 30.70599937438965,177.31399536132812 C21.16900062561035,184.4149932861328 10.322999954223633,188.13699340820312 -0.9890000224113464,188.13699340820312z M-320.8399963378906,137.48899841308594 C-320.8399963378906,137.48899841308594 -25.55500030517578,145.4409942626953 -25.55500030517578,145.4409942626953 C-21.5049991607666,145.55099487304688 -17.64699935913086,147.19200134277344 -14.758999824523926,150.03500366210938 C-10.59000015258789,154.13999938964844 -6.085999965667725,156.13699340820312 -0.9890000224113464,156.13699340820312 C4.324999809265137,156.13699340820312 9.227999687194824,154.01600646972656 14,149.65499877929688 C16.84000015258789,147.06100463867188 20.51799964904785,145.57699584960938 24.363000869750977,145.47300720214844 C24.363000869750977,145.47300720214844 320.8399963378906,137.48899841308594 320.8399963378906,137.48899841308594 C301.3710021972656,33.685001373291016 278.8320007324219,-74.60099792480469 269.3500061035156,-103.64299774169922 C265.7820129394531,-103.9530029296875 262.40399169921875,-105.4530029296875 259.7749938964844,-107.92500305175781 C259.7749938964844,-107.92500305175781 227.79299926757812,-137.9810028076172 227.79299926757812,-137.9810028076172 C202.18600463867188,-126.60399627685547 161.47900390625,-135.29400634765625 118.80000305175781,-144.4080047607422 C97.41100311279297,-148.97500610351562 77.20999908447266,-153.28900146484375 61.0620002746582,-154.49600219726562 C50.20399856567383,-155.3070068359375 23.92099952697754,-154.56399536132812 14.28600025177002,-130.21499633789062 C11.871000289916992,-124.11199951171875 5.9720001220703125,-120.10299682617188 -0.5910000205039978,-120.10299682617188 C-0.5910000205039978,-120.10299682617188 -0.5920000076293945,-120.10299682617188 -0.5920000076293945,-120.10299682617188 C-7.156000137329102,-120.10399627685547 -13.055000305175781,-124.11299896240234 -15.468999862670898,-130.2169952392578 C-18.67799949645996,-138.32699584960938 -29.65399932861328,-156.92799377441406 -62.24100112915039,-154.49600219726562 C-78.39199829101562,-153.28900146484375 -98.59700012207031,-148.9759979248047 -119.98699951171875,-144.4080047607422 C-162.66900634765625,-135.2949981689453 -203.37600708007812,-126.60199737548828 -228.98599243164062,-137.9810028076172 C-228.98599243164062,-137.9810028076172 -260.9649963378906,-107.92500305175781 -260.9649963378906,-107.92500305175781 C-263.2879943847656,-105.74099731445312 -266.1940002441406,-104.31600189208984 -269.3009948730469,-103.80000305175781 C-278.75299072265625,-74.99600219726562 -301.3380126953125,33.494998931884766 -320.8399963378906,137.48899841308594z">
                </path>
            </g>
            <g opacity="1" transform="matrix(1,0,0,1,399.9989929199219,425.5669860839844)">
                <path fill="rgb(225,80,36)" fill-opacity="1"
                    d=" M-279.0840148925781,-145.86099243164062 C-289.64801025390625,-145.54800415039062 -340,126.7040023803711 -340,126.7040023803711 C-340,126.7040023803711 -25.985000610351562,135.15899658203125 -25.985000610351562,135.15899658203125 C-20.26300048828125,140.79400634765625 -12.055999755859375,145.86099243164062 -0.9890000224113464,145.86099243164062 C10.053999900817871,145.86099243164062 18.641000747680664,140.81300354003906 24.79400062561035,135.19000244140625 C24.79400062561035,135.19000244140625 340,126.7040023803711 340,126.7040023803711 C340,126.7040023803711 289.6449890136719,-145.54800415039062 279.0840148925781,-145.86099243164062 C279.0840148925781,-145.86099243164062 -279.0840148925781,-145.86099243164062 -279.0840148925781,-145.86099243164062z">
                </path>
            </g>
            <g opacity="1" transform="matrix(1,0,0,1,399.4079895019531,386.2300109863281)">
                <path fill="rgb(255,241,216)" fill-opacity="1"
                    d=" M276.8110046386719,-101.36799621582031 C276.8110046386719,-101.36799621582031 230.13699340820312,-145.23199462890625 230.13699340820312,-145.23199462890625 C205.33700561523438,-119.12000274658203 115.7239990234375,-153.44000244140625 62.84700012207031,-157.39100646972656 C18.631000518798828,-160.69400024414062 3.7070000171661377,-132.40899658203125 0.0010000000474974513,-123.04199981689453 C-3.7049999237060547,-132.40899658203125 -18.625999450683594,-160.69400024414062 -62.84000015258789,-157.39100646972656 C-115.72799682617188,-153.44000244140625 -205.3350067138672,-119.12000274658203 -230.14599609375,-145.23199462890625 C-230.14599609375,-145.23199462890625 -276.81500244140625,-101.36799621582031 -276.81500244140625,-101.36799621582031 C-276.81500244140625,-101.36799621582031 -326.8970031738281,154.29100036621094 -326.8970031738281,154.29100036621094 C-326.8970031738281,154.29100036621094 -192.04800415039062,160.69400024414062 -128.64599609375,145.4709930419922 C-65.2509994506836,130.2530059814453 -37.81800079345703,144.781005859375 -33.88999938964844,157.42999267578125 C-33.88999938964844,157.42999267578125 -0.012000000104308128,157.42999267578125 -0.012000000104308128,157.42999267578125 C-0.012000000104308128,157.42999267578125 0.014000000432133675,157.42999267578125 0.014000000432133675,157.42999267578125 C0.014000000432133675,157.42999267578125 33.88800048828125,157.42999267578125 33.88800048828125,157.42999267578125 C37.821998596191406,144.781005859375 65.24099731445312,130.2530059814453 128.6510009765625,145.4709930419922 C192.0500030517578,160.69400024414062 326.8970031738281,154.29100036621094 326.8970031738281,154.29100036621094 C326.8970031738281,154.29100036621094 276.8110046386719,-101.36799621582031 276.8110046386719,-101.36799621582031z">
                </path>
            </g>
        </g>
        <g transform="matrix(1,0,0,1,398,400)" opacity="1" style="display: block;">
            <g opacity="1" transform="matrix(2.050800085067749,0,0,2.050800085067749,145.37100219726562,-14.753999710083008)">
                <path fill="rgb(210,187,143)" fill-opacity="1"
                    d=" M-114.77799987792969,52.176998138427734 C-151.29800415039062,60.176998138427734 -201.3260040283203,65.677001953125 -210.83099365234375,63.676998138427734 C-210.83099365234375,63.676998138427734 -182.91900634765625,-70.26399993896484 -182.91900634765625,-70.26399993896484 C-170.7779998779297,-57.48699951171875 -126.90599822998047,-74.27999877929688 -101.01899719238281,-76.21299743652344 C-79.37200164794922,-77.8290023803711 -72.06600189208984,-63.98899841308594 -70.2509994506836,-59.40599822998047 C-70.2509994506836,-59.40599822998047 -70.25800323486328,77.8290023803711 -70.25800323486328,77.8290023803711 C-70.25800323486328,77.8290023803711 -78.25800323486328,44.176998138427734 -114.77799987792969,52.176998138427734z">
                </path>
            </g>
        </g>
        <g transform="matrix(1,0,0,1,398,400)" opacity="1" style="display: block;">
            <g opacity="1" transform="matrix(2.050800085067749,0,0,2.050800085067749,145.37100219726562,-14.753999710083008)">
                <path fill="rgb(255,229,177)" fill-opacity="1"
                    d=" M-25.749000549316406,52.176998138427734 C10.75100040435791,60.176998138427734 60.750999450683594,65.677001953125 70.2509994506836,63.676998138427734 C70.2509994506836,63.676998138427734 42.35499954223633,-70.26399993896484 42.35499954223633,-70.26399993896484 C30.219999313354492,-57.48699951171875 -13.628000259399414,-74.27999877929688 -39.500999450683594,-76.21299743652344 C-61.13600158691406,-77.8290023803711 -68.43699645996094,-63.98899841308594 -70.2509994506836,-59.40599822998047 C-70.2509994506836,-59.40599822998047 -70.24500274658203,77.8290023803711 -70.24500274658203,77.8290023803711 C-70.24500274658203,77.8290023803711 -62.249000549316406,44.176998138427734 -25.749000549316406,52.176998138427734z">
                </path>
            </g>
        </g>
        <g transform="matrix(1,0,0,1,398,400)" opacity="1" style="display: block;">
            <g opacity="1" transform="matrix(2.050800085067749,0,0,2.050800085067749,145.37100219726562,-14.753999710083008)">
                <path fill="rgb(244,218,164)" fill-opacity="1"
                    d=" M-114.77799987792969,52.176998138427734 C-151.29800415039062,60.176998138427734 -201.3260040283203,65.677001953125 -210.83099365234375,63.676998138427734 C-210.83099365234375,63.676998138427734 -182.91900634765625,-70.26399993896484 -182.91900634765625,-70.26399993896484 C-170.7779998779297,-57.48699951171875 -126.90599822998047,-74.27999877929688 -101.01899719238281,-76.21299743652344 C-79.37200164794922,-77.8290023803711 -72.06600189208984,-63.98899841308594 -70.2509994506836,-59.40599822998047 C-70.2509994506836,-59.40599822998047 -70.25800323486328,77.8290023803711 -70.25800323486328,77.8290023803711 C-70.25800323486328,77.8290023803711 -78.25800323486328,44.176998138427734 -114.77799987792969,52.176998138427734z">
                </path>
            </g>
        </g>
    </g>
</svg>