<?xml version="1.0" encoding="utf-8"?>
<!-- Generator: Adobe Illustrator 19.2.1, SVG Export Plug-In . SVG Version: 6.00 Build 0)  -->
<svg version="1.1" id="layer" xmlns="http://www.w3.org/2000/svg" xmlns:xlink="http://www.w3.org/1999/xlink" x="0px" y="0px"
	 viewBox="0 0 652 652" style="enable-background:new 0 0 652 652;" xml:space="preserve">
<style type="text/css">
	.st0{fill:#FFD228;}
	.st1{fill:#0057b7; /* 1D2E5B */}
	.st2{fill:#FFD227;}
</style>
<g>
	<path class="st0" d="M260.9,325.2L260.9,325.2c-2.4-0.1-4.3-2.2-4.1-4.6l7.1-85.2c0.1-0.6,0.5-1,1.1-1c0.6,0,1,0.5,1,1.1l-0.8,85.4
		C265.3,323.3,263.3,325.2,260.9,325.2"/>
	<path class="st0" d="M288,324.1L288,324.1c-1.9,0.3-3.6-1-3.9-2.9l-11.9-86.5c-0.1-0.4,0.2-0.7,0.6-0.7h0.1c0.3,0,0.7,0.2,0.7,0.5
		l17.2,85.6C291.2,322,289.9,323.8,288,324.1"/>
	<path class="st0" d="M309.3,305.8L309.3,305.8c-1.8,0.8-3.9-0.1-4.6-2l-25.1-71c-0.1-0.3,0-0.7,0.4-0.8h0c0.3-0.2,0.7,0,0.9,0.3
		l30.2,69C311.8,303,311,305,309.3,305.8"/>
	<path class="st0" d="M350.5,323.3L350.5,323.3c-1.8,1.3-4.3,0.8-5.5-1.1l-59-92.4c-0.2-0.3-0.1-0.8,0.2-1c0.3-0.2,0.7-0.1,0.9,0.2
		l64.2,88.9C352.6,319.6,352.2,322,350.5,323.3"/>
	<path class="st0" d="M389.8,322.8L389.8,322.8c-1.6,1.8-4.4,1.8-6,0.1l-91.9-97.2c-0.3-0.4-0.3-0.9,0-1.2c0.4-0.4,0.9-0.4,1.3,0
		l96.5,92.6C391.2,318.6,391.3,321.2,389.8,322.8"/>
	<path class="st0" d="M362,263.1L362,263.1c-1,1.5-3.1,1.9-4.6,0.8l-60.3-44.6c-0.3-0.2-0.4-0.7-0.1-1c0.2-0.3,0.6-0.4,0.9-0.2
		l63.2,40.4C362.6,259.5,363,261.6,362,263.1"/>
	<path class="st0" d="M383.8,246L383.8,246c-0.8,2.1-3.1,3.1-5.1,2.2l-78.2-34.6c-0.4-0.2-0.6-0.7-0.4-1.1c0.2-0.4,0.7-0.6,1.1-0.5
		l80.4,29.2C383.5,241.9,384.5,244.1,383.8,246"/>
	<path class="st0" d="M378.7,218.3L378.7,218.3c-0.3,1.8-2.1,2.9-3.8,2.6l-71.9-15c-0.4-0.1-0.6-0.4-0.6-0.8
		c0.1-0.4,0.4-0.7,0.8-0.6l72.8,10.1C377.8,214.8,379,216.5,378.7,218.3"/>
	<path class="st0" d="M393.5,198.9L393.5,198.9c0,2.1-1.7,3.8-3.9,3.7l-85.8-3c-0.5,0-0.8-0.4-0.8-0.9c0-0.5,0.4-0.9,0.8-0.9
		l85.8-2.6C391.8,195.2,393.5,196.8,393.5,198.9"/>
	<path class="st0" d="M375.4,176.7L375.4,176.7c0.4,1.8-0.8,3.6-2.6,3.9l-69.7,11.6c-0.4,0.1-0.7-0.2-0.8-0.5
		c-0.1-0.4,0.1-0.8,0.5-0.9l68.7-16.4C373.3,173.9,375,175,375.4,176.7"/>
	<path class="st0" d="M361,134.3L361,134.3c1.1,1.5,0.7,3.6-0.9,4.7l-62.2,39.8c-0.3,0.2-0.7,0.1-0.9-0.2c-0.2-0.3-0.2-0.8,0.1-1
		l59.3-44C357.8,132.5,359.9,132.8,361,134.3"/>
	<path class="st0" d="M356.2,108.8L356.2,108.8c1.5,1.4,1.4,3.8-0.1,5.2l-63.2,58.7c-0.3,0.3-0.9,0.3-1.2,0c-0.3-0.3-0.3-0.8,0-1.1
		l59.3-62.6C352.5,107.4,354.8,107.4,356.2,108.8"/>
	<path class="st0" d="M312.1,81.3L312.1,81.3c2.1,0.9,3.1,3.3,2.2,5.4l-33.5,78c-0.2,0.4-0.7,0.6-1.1,0.5c-0.4-0.2-0.6-0.6-0.5-1.1
		l27.4-80.3C307.4,81.5,309.9,80.4,312.1,81.3"/>
	<path class="st0" d="M260.3,72.2L260.3,72.2c2.4-0.2,4.4,1.7,4.5,4.1l2.2,85.4c0,0.6-0.4,1-1,1.1c-0.6,0-1.1-0.4-1.1-0.9l-8.5-85
		C256.2,74.5,258,72.4,260.3,72.2"/>
	<path class="st0" d="M324.2,108.5L324.2,108.5c1.6,1,2.1,3.1,1,4.6l-38,55.3c-0.2,0.3-0.6,0.4-0.9,0.2h0c-0.3-0.2-0.4-0.6-0.2-0.9
		l33.6-58C320.6,108.1,322.6,107.5,324.2,108.5"/>
	<path class="st0" d="M283.3,85.6L283.3,85.6c1.9,0.2,3.3,2,2.9,3.9l-13,73.2c-0.1,0.4-0.4,0.6-0.7,0.5c-0.4,0-0.6-0.4-0.6-0.7
		l7.7-73.9C279.8,86.7,281.4,85.4,283.3,85.6"/>
	<path class="st0" d="M383.5,149.9L383.5,149.9c1.1,2.1,0.1,4.6-2.1,5.4l-80,29.9c-0.4,0.2-0.9,0-1.1-0.5c-0.2-0.4,0-0.9,0.4-1.1
		l77.7-35.5C380.3,147.3,382.5,148.1,383.5,149.9"/>
	<path class="st1" d="M116.9,427c0-26.7-19.8-34.9-42.9-34.9H12.1v100.1H46v-23.7h11.8l17.8,23.7H116l-24.4-30
		C91.6,462.2,116.9,453.7,116.9,427 M69.9,440.1H46.2v-19.9h23.8c5.5,0,9.9,4.5,9.9,9.9C79.9,435.7,75.4,440.1,69.9,440.1"/>
	<path class="st1" d="M511.2,427c0-26.7-19.8-34.9-42.9-34.9h-61.9v100.1h33.9v-23.7h11.8l17.8,23.7h40.4l-24.4-30
		C485.9,462.2,511.2,453.7,511.2,427 M464.2,440.1h-23.8v-19.9h23.8c5.5,0,9.9,4.5,9.9,9.9C474.2,435.7,469.7,440.1,464.2,440.1"/>
	<rect x="127.1" y="392.1" class="st1" width="34" height="100.1"/>
	<path class="st1" d="M253.8,434.2l22.2-23.4c0,0-13.9-21.1-47-21.1s-58.1,19.8-58.1,52.2c0,32.4,22.7,52.6,56.2,52.6
		c33.5,0,48.5-22.6,48.5-22.6l-22.1-21.6c0,0-8.1,11.8-25.1,11.8c-17,0-22.1-10.3-22.1-20.5c0-10.2,8.2-19.6,21.4-19.6
		C244.3,422.1,253.8,434.6,253.8,434.2"/>
	<path class="st1" d="M354.5,392.1h-38.8l-42.8,100.1h36.7l5.6-12.3h39.7l5.4,12.3h37.3L354.5,392.1z M326.7,453.5l1.8-3.8l6.5-21.9
		l6.5,21.9l1.8,3.8H326.7z"/>
	<path class="st1" d="M578.3,392.1h-57.2v100.1h55c0,0,52.9,4,52.9-52.1C629,415.2,613.3,392.1,578.3,392.1 M578.7,461.7h-23.5
		v-38.5c0,0,14.2-0.1,21-0.1s17.3,2.3,17.3,18.7C593.6,458.3,583.3,461.7,578.7,461.7"/>
	<path class="st2" d="M155.4,542v4.5v25h13.3c6.7,0,12.2-5.4,12.2-12.2v-5.2c0-6.7-5.4-12.2-12.2-12.2H155.4z M168.1,567h-8.2v-20.5
		h8.2c4.9,0,8.2,4,8.2,8.9v2.7C176.3,563,173,567,168.1,567"/>
	<polygon class="st2" points="212.9,546.5 212.9,542 197,542 192.5,542 192.5,546.5 192.5,554.5 192.5,559 192.5,567 192.5,571.5 
		197,571.5 212.8,571.5 212.8,567 197,567 197,559 212.4,559 212.4,554.5 197,554.5 197,546.5 	"/>
	<path class="st2" d="M225.2,542L225.2,542v29.6h4.5v-8.7h10.8c5,0,9.1-4.1,9.1-9.1V551c0-5-4.1-9-9.1-9H225.2z M239.9,558.4h-10.1
		v-11.9h10.1c2.9,0,5.2,2.3,5.2,5.2v1.4C245.1,556,242.8,558.4,239.9,558.4"/>
	<path class="st2" d="M278.9,542v19.6c0,3.1-2.5,5.5-5.5,5.5h-3.1c-3.1,0-5.5-2.5-5.5-5.5V542h-4.5v20.1c0,5.2,4.3,9.5,9.5,9.5h4.1
		c5.2,0,9.5-4.3,9.5-9.5V542H278.9z"/>
	<rect x="295.2" y="542" class="st2" width="4.5" height="29.6"/>
	<path class="st2" d="M332.6,549.5l0.5-4.9c0,0-4-2.9-10.1-2.9c-6.1,0-11.5,2.5-11.5,7.8s4,7.1,7.4,8.1c3.4,1.1,10.5,2.3,10.5,6.1
		c0,3.8-4.2,4.4-6.8,4.4c-6.8,0-11.1-4.3-11.1-4.3l-0.4,4.6c0,0,3.8,3.9,11,3.9c7.2,0,12.1-2.9,12.1-8.5c0-5.6-4.9-7.7-8.6-8.7
		c-3.8-1-9.2-2.1-9.2-5.7c0-3.6,6-3.4,6.9-3.4C328.3,545.9,332.6,549.5,332.6,549.5"/>
	<polygon class="st0" points="378,542 374.3,542 372,546.2 378,546.2 378,571.4 382.5,571.4 382.5,546.2 382.5,542 	"/>
	<path class="st2" d="M407.7,541.6c-4.1,0-11.5,2.4-11.5,10.5c0,8.1,6.2,9.9,10.5,9.9c6.4,0,8.8-3.3,8.8-3.3s-0.6,9.2-8.6,9.2
		c-5.3,0-9.6-2.9-9.6-2.9l0.7,4.9c0,0,3.3,2.2,8.6,2.2c5.4,0,13.8-2.2,13.8-15.5C420.2,543.4,411.7,541.6,407.7,541.6 M407.3,557.8
		c-5.7,0-6.2-4-6.2-5.8c0-1.8,0.6-6.1,6.4-6.1c7,0,7.8,8.3,7.8,8.3S413,557.8,407.3,557.8"/>
	<path class="st2" d="M431.9,546.3l1.7-4.3h19.9l-7.7,10.9c0,0,7.7,1,7.7,8.9c0,7.9-7.3,10.3-10.8,10.3c-8,0-11.2-2.6-11.2-2.6v-5.2
		c0,0,4.4,3.6,9.8,3.6s7.4-3.2,7.4-6c0-7.6-10.5-5.3-10.5-5.3l6.7-10.4H431.9z"/>
	<path class="st2" d="M464.7,549.9l0.4-5.2c0,0,4.8-3.1,10.6-3.1c5.8,0,9.4,2.4,9.4,7.8c0,7.7-11.5,18.1-11.5,18.1h12l-1.4,4.2
		h-19.9l0.3-1c0,0,15.5-14.1,15.5-20.3c0-4.3-3-4-5.2-4C470.2,546.3,464.7,549.9,464.7,549.9"/>
</g>
</svg>
