<svg xmlns="http://www.w3.org/2000/svg" version="1.0" viewBox="0 0 1543 879"><g fill="#BD204B"><path d="M346.521 274.602h915.339v222.297H346.521z" style="fill:#fff;stroke:#fff" transform="matrix(1.24377 0 0 1.55709 -129.638 -319.448)"/><path d="M370.36 45.067c-11.07 1.401-26.866 8.097-36.816 15.57-21.517 15.883-38.184 45.468-43.16 76.142-1.119 6.384-16.666 126.903-34.576 267.82-17.91 140.916-32.587 256.296-32.711 256.452-.125.311-3.11-.934-6.468-2.491-32.214-15.416-87.313-.935-129.601 34.1-22.14 18.373-43.284 47.647-50.995 70.847-7.463 22.734-5.846 45.467 4.602 60.26 30.97 44.221 120.77 24.135 174.128-38.616 12.562-14.792 20.274-27.56 26.368-43.443 4.354-11.21 5.473-17.284 11.692-60.726 10.945-75.986 11.567-80.035 16.169-91.869 8.706-22.422 23.258-38.771 42.537-47.958l7.214-3.425 528.604-.779 528.604-.779 9.453-3.425c19.278-6.851 37.437-21.332 49.129-39.083 7.587-11.678 15.547-29.896 18.408-42.353.995-4.671 11.691-95.76 23.756-202.421 11.94-106.661 22.014-195.415 22.388-197.284.373-1.868-.25-4.36-1.369-5.76-1.74-2.336-53.98-2.492-559.947-2.336-306.963.155-562.31.778-567.41 1.557zm92.66 143.875c11.319 3.581 24.752 12.456 31.593 20.865 5.72 7.007 12.562 20.865 12.562 25.536 0 1.401-5.597 3.737-17.662 7.163-9.826 2.647-18.532 4.826-19.278 4.826-.871 0-2.364-2.024-3.359-4.515-7.587-18.218-34.825-25.225-46.517-12.145-4.104 4.827-5.97 13.546-3.855 19.152 2.611 6.851 8.582 10.9 27.363 18.53 21.641 8.719 30.845 14.48 38.432 23.978 11.94 14.948 14.304 40.952 5.597 62.44-6.343 15.57-20.77 28.494-38.806 34.411-13.805 4.672-40.422 4.672-54.228 0-13.806-4.515-24.876-11.834-32.463-21.332-6.592-7.941-14.054-23.979-12.686-26.782.373-.778 10.323-3.893 22.015-6.695 20.77-5.139 21.393-5.139 22.76-2.336 6.22 13.547 16.419 20.242 30.598 20.242 14.8 0 23.631-7.63 23.631-20.553 0-7.63-5.1-12.146-19.154-17.595-36.567-13.859-44.651-18.685-51.492-31.298-5.846-11.055-7.09-16.505-6.965-31.609 0-10.588.746-16.194 2.86-22.889 6.717-21.488 24.752-36.747 49.254-41.886 8.706-1.712 30.846-.311 39.8 2.492zm190.796-.156c11.07 3.737 19.527 9.81 26.119 18.84 8.209 11.367 10.696 20.554 10.696 39.706-.124 13.08-1.368 21.955-11.567 76.454-6.219 33.788-11.442 61.972-11.442 62.594 0 .623-9.826 1.09-21.766 1.09-16.543 0-21.767-.467-21.767-2.024 0-.934.871-5.605 1.742-10.12l1.865-8.41-2.736 2.492c-24.875 22.422-51.243 29.118-76.368 19.464-23.258-9.031-32.96-42.976-21.144-74.429 3.98-10.588 14.677-23.98 24.13-30.052 18.159-11.834 26.99-13.702 64.054-13.858h29.477l1.493-8.252c1.865-10.744.622-18.374-3.98-25.07-4.975-7.006-10.572-9.03-22.14-8.252-13.557.934-22.636 7.474-29.974 21.332l-1.866 3.426-18.657-5.762c-10.323-3.114-19.154-6.228-19.776-7.007-1.492-1.712 9.453-20.397 16.17-27.404 12.935-13.703 30.223-23.512 47.138-26.938 9.702-1.868 31.717-.623 40.299 2.18zm186.566 0c16.418 5.605 32.462 20.865 39.676 37.837 3.856 9.187 8.707 27.872 7.463 29.273-.373.468-10.448 3.115-22.388 5.917l-21.766 5.139-2.115-7.319c-2.611-9.498-7.09-16.193-13.681-20.553-4.229-2.803-7.09-3.426-16.915-3.426-10.946 0-12.563.467-20.15 5.139-14.8 9.03-24.502 26.626-27.238 48.892-2.86 22.422 3.358 40.017 16.915 48.737 6.592 4.204 8.458 4.671 18.532 4.671 9.826-.155 12.19-.622 18.16-4.36 8.084-5.294 14.054-11.989 18.159-20.709l2.985-6.384 17.786 3.737c22.636 4.672 23.258 4.827 23.258 7.163 0 5.294-13.06 27.872-22.263 38.771-18.16 21.332-37.936 31.142-63.557 31.298-24.005.156-42.413-8.408-56.468-26.004-12.81-16.038-18.407-34.411-18.283-60.103.124-44.533 20.77-85.484 53.607-106.505 12.189-7.785 16.79-9.81 29.104-12.768 10.448-2.491 29.353-1.713 39.179 1.557zm190.422.311c23.134 8.564 40.298 32.076 45.397 62.595 1.866 10.433 2.488 40.018 1.12 46.557l-.746 3.582H956.177v5.138c0 14.637 6.717 29.585 16.542 36.28 5.97 4.204 7.463 4.516 18.906 4.516 11.07 0 13.184-.467 19.403-4.36 3.855-2.336 9.452-7.474 12.437-11.523l5.224-7.162 15.05 4.204c8.333 2.336 17.164 4.983 19.652 5.761l4.601 1.557-2.736 5.761c-4.353 9.187-19.9 28.65-27.612 34.412-17.04 12.924-41.169 19.152-60.945 15.882-41.168-7.006-64.551-42.352-62.561-94.982 2.114-54.498 33.582-99.187 77.487-110.086 10.696-2.647 29.602-1.713 39.179 1.868zm214.675-2.335c15.796 3.581 28.234 14.636 34.328 30.207l2.612 6.696 9.08-11.367c17.661-22.266 41.417-31.298 65.298-25.07 11.07 2.96 17.661 7.475 24.875 16.662 8.085 10.432 11.443 21.488 11.443 38.771.124 11.523-1.492 22.11-12.189 78.945l-12.313 65.864h-22.14c-20.77 0-22.139-.155-22.139-2.958 0-1.557 4.478-26.782 9.95-56.21 10.2-54.655 11.443-65.866 8.21-75.208-1.99-6.073-7.588-12.768-12.314-14.948-11.07-5.294-27.612.467-37.562 12.923-10.572 13.08-13.184 22.111-23.632 78.79-5.1 27.871-9.577 52.162-9.95 54.03-.622 3.581-.87 3.581-23.01 3.581-18.905 0-22.388-.311-22.388-2.335 0-1.246 4.478-26.47 9.95-55.9 11.07-59.636 11.816-67.733 7.09-78.788-7.214-16.973-29.229-18.841-44.9-3.893-5.721 5.45-13.557 20.242-16.418 30.675-1.244 4.515-6.468 30.986-11.567 58.858l-9.453 50.605-22.636.467-22.761.311.746-4.204c.373-2.491 8.457-46.4 17.786-97.785l17.164-93.425 22.512-.467c17.662-.312 22.637 0 22.637 1.557 0 1.09-.87 6.228-1.866 11.367-.995 5.138-1.741 9.965-1.865 10.743 0 .623 3.606-2.958 8.084-8.096 15.672-18.53 35.323-25.381 57.338-20.398z"/><path d="M589.388 305.1c-11.318 2.803-18.78 12.924-18.78 25.537 0 8.097 3.357 14.325 9.7 18.218 4.603 2.802 6.966 3.114 15.548 2.335 20.398-1.557 37.437-17.128 41.169-37.681.497-2.647 1.12-5.917 1.492-7.474.622-2.492-.995-2.647-21.517-2.492-12.189.156-24.627.779-27.612 1.557zm407.71-74.895c-12.936 2.802-26.742 15.882-32.96 31.297-1.618 4.204-2.986 7.941-2.986 8.253 0 .467 17.413.778 38.557.778 43.781 0 40.174 1.401 36.567-13.702-4.602-19.775-20.77-30.675-39.179-26.626z"/></g></svg>