<?xml version="1.0" encoding="iso-8859-1"?>
<!-- Generator: Adobe Illustrator 19.0.0, SVG Export Plug-In . SVG Version: 6.00 Build 0)  -->
<svg version="1.1" id="Layer_1" xmlns="http://www.w3.org/2000/svg" xmlns:xlink="http://www.w3.org/1999/xlink" x="0px" y="0px"
	 viewBox="0 0 512 512" style="enable-background:new 0 0 512 512;" xml:space="preserve">
<g>
	<g>
		<path d="M497.265,118.749c-18.953-18.954-49.722-19.029-68.587-0.163l-159.45,159.447c-9.947,9.948-26.061,10.025-35.912,0.172
			c-9.855-9.855-9.778-25.966,0.171-35.914L392.934,82.842c9.153-9.153,14.157-21.367,14.089-34.389
			c-0.068-12.931-5.13-25.076-14.253-34.198c-9.122-9.123-21.267-14.185-34.198-14.254c-13.049-0.068-25.236,4.934-34.389,14.088
			L164.736,173.535c-18.817,18.817-30.712,42.725-34.397,69.141c-2.924,20.962-0.292,42.64,7.422,62.321l-78.276,78.27
			c-15.17,1.263-29.267,7.764-40.153,18.65c-25.15,25.149-25.15,66.072,0,91.222C31.908,505.713,48.425,512,64.942,512
			c16.517,0,33.035-6.288,45.608-18.862c11.721-11.721,17.974-26.867,18.77-42.247l76.856-76.796
			c19.593,7.798,41.274,10.445,62.33,7.454c26.462-3.756,50.486-15.778,69.474-34.766L497.43,187.336
			C516.293,168.473,516.22,137.706,497.265,118.749z M84.881,467.468c-10.995,10.994-28.884,10.992-39.88,0
			c-10.995-10.995-10.995-28.884,0-39.88c5.326-5.326,12.407-8.259,19.94-8.259c7.532,0,14.612,2.933,19.939,8.259
			C95.876,438.584,95.876,456.473,84.881,467.468z M471.759,161.662L312.311,321.106c-26.747,26.745-68.435,32.992-101.376,15.198
			c-7.061-3.812-15.789-2.553-21.462,3.12L118,410.872c-2.177-3.149-4.648-6.154-7.448-8.955c-3.122-3.121-6.51-5.878-10.108-8.259
			l71.889-71.893c5.631-5.631,6.934-14.287,3.213-21.327c-17.866-33.807-11.894-74.517,14.86-101.273L349.853,39.673
			c2.232-2.23,5.233-3.543,8.46-3.543c0.023,0,0.045,0,0.068,0c3.305,0,6.402,1.392,8.719,3.709s3.604,5.501,3.621,8.806
			c0.017,3.253-1.211,6.282-3.456,8.528L207.817,216.619c-24.103,24.102-24.18,63.246-0.172,87.256
			c24.011,24.009,63.154,23.929,87.255-0.173l159.448-159.447c4.712-4.71,12.447-4.635,17.247,0.162
			C476.395,149.218,476.468,156.953,471.759,161.662z"/>
	</g>
</g>
<g>
</g>
<g>
</g>
<g>
</g>
<g>
</g>
<g>
</g>
<g>
</g>
<g>
</g>
<g>
</g>
<g>
</g>
<g>
</g>
<g>
</g>
<g>
</g>
<g>
</g>
<g>
</g>
<g>
</g>
</svg>
