<?xml version="1.0" standalone="no"?>
<!DOCTYPE svg PUBLIC "-//W3C//DTD SVG 20010904//EN"
 "http://www.w3.org/TR/2001/REC-SVG-20010904/DTD/svg10.dtd">
<svg version="1.0" xmlns="http://www.w3.org/2000/svg"
 width="450.000000pt" height="450.000000pt" viewBox="0 0 450.000000 450.000000"
 preserveAspectRatio="xMidYMid meet">
<metadata>
Created by potrace 1.11, written by Peter Selinger 2001-2013
</metadata>
<g transform="translate(0.000000,450.000000) scale(0.100000,-0.100000)"
fill="#000000" stroke="none">
<path d="M2221 4270 c-45 -11 -81 -39 -103 -81 -15 -30 -20 -50 -27 -115 0 -5
-16 -10 -35 -11 -98 -3 -145 -89 -109 -199 19 -58 61 -94 114 -101 l44 -6 -26
29 c-49 54 -62 109 -39 168 10 27 56 56 90 56 15 0 20 6 20 28 0 37 32 94 61
109 65 34 128 -3 136 -80 3 -26 8 -47 12 -48 94 -12 141 -48 141 -108 0 -33
-29 -88 -59 -114 -35 -29 -32 -37 12 -30 62 10 100 39 131 100 46 90 -23 196
-127 196 l-42 0 0 56 c-1 31 -7 69 -15 85 -27 53 -106 82 -179 66z"/>
<path d="M2224 3995 c-42 -18 -63 -45 -68 -90 -4 -34 -1 -42 33 -74 33 -32 37
-41 35 -76 -6 -77 -25 -125 -61 -152 -31 -24 -45 -27 -144 -31 -153 -6 -182 9
-214 114 -10 35 -10 47 -1 57 45 46 59 105 34 150 -18 34 -40 46 -81 47 -70 0
-124 -84 -98 -153 8 -19 24 -34 51 -44 35 -14 40 -20 45 -57 4 -22 4 -54 2
-71 -3 -16 -6 -33 -6 -36 -2 -14 -61 -30 -118 -31 -74 -2 -107 16 -134 75 -25
55 -24 64 8 91 52 45 26 155 -42 174 -41 12 -91 -6 -122 -42 -21 -25 -24 -37
-20 -75 5 -48 30 -75 78 -85 31 -6 44 -36 48 -107 1 -29 -3 -50 -11 -57 -21
-17 -78 1 -144 45 -55 38 -59 43 -61 83 -5 77 -51 117 -121 106 -42 -6 -61
-22 -78 -62 -17 -40 0 -109 32 -130 27 -19 80 -24 112 -12 18 6 37 1 82 -23
85 -45 95 -59 96 -138 1 -36 4 -81 8 -99 10 -49 50 -123 84 -156 38 -35 73
-37 225 -12 198 33 291 40 527 40 200 0 339 -8 495 -29 17 -2 53 -7 80 -10 28
-4 92 -13 142 -21 137 -21 145 -20 185 24 43 48 89 144 96 198 3 26 -2 52 -12
72 -9 17 -16 35 -16 39 0 4 24 34 54 66 46 50 60 59 93 62 52 3 66 11 86 44
55 93 -34 177 -133 126 -37 -19 -52 -47 -50 -93 3 -55 2 -58 -26 -92 -30 -35
-64 -54 -111 -63 -25 -5 -38 -1 -57 16 -24 22 -24 23 -10 76 8 30 16 56 17 57
1 2 18 6 36 9 68 12 101 47 101 106 0 30 -7 43 -35 68 -47 41 -93 42 -135 4
-36 -33 -42 -73 -16 -123 21 -43 20 -53 -8 -98 -39 -63 -87 -77 -187 -57 -43
8 -57 32 -54 91 3 53 8 60 46 68 17 3 46 21 65 40 46 46 45 82 -2 144 -1 2
-19 10 -40 17 -63 21 -124 -14 -144 -83 -7 -26 -4 -40 15 -76 20 -39 22 -49
13 -80 -6 -20 -24 -50 -39 -68 l-27 -33 -110 2 c-185 3 -234 40 -234 178 0 40
4 61 13 64 21 7 56 50 61 75 6 29 -12 75 -38 97 -28 23 -57 28 -90 14z m341
-489 c22 -3 69 -8 105 -11 54 -5 127 -17 255 -41 51 -10 148 -50 177 -74 29
-24 30 -29 24 -71 -8 -50 -54 -131 -88 -153 -17 -11 -36 -12 -78 -6 -30 4 -75
11 -100 14 -25 4 -71 11 -103 17 -33 6 -73 12 -90 13 -33 4 -117 16 -152 22
-51 10 -179 18 -265 18 -110 -1 -224 -8 -430 -29 -30 -3 -82 -8 -115 -11 -33
-3 -88 -9 -122 -13 -78 -9 -101 2 -132 65 -60 119 -31 209 72 228 111 21 155
26 282 32 66 3 122 8 123 9 6 5 591 -3 637 -9z"/>
<path d="M2195 3444 c-29 -8 -45 -33 -45 -69 0 -45 20 -66 71 -75 61 -12 179
-4 195 12 25 26 21 103 -6 118 -22 12 -183 22 -215 14z"/>
<path d="M1880 3428 c-38 -10 -71 -41 -65 -61 2 -7 6 -25 10 -41 l6 -29 96 6
c106 6 128 18 138 72 9 49 -6 59 -82 61 -37 1 -84 -2 -103 -8z"/>
<path d="M2526 3404 c-21 -15 -31 -66 -17 -91 19 -36 200 -53 236 -23 19 16
19 84 0 103 -27 27 -186 35 -219 11z"/>
<path d="M1598 3395 c-77 -12 -98 -27 -98 -66 0 -65 63 -85 168 -54 61 19 82
37 82 74 0 51 -43 64 -152 46z"/>
<path d="M2854 3362 c-16 -11 -34 -48 -34 -71 0 -24 37 -51 79 -57 17 -2 43
-6 59 -8 43 -6 69 9 77 44 10 44 -14 75 -69 89 -51 13 -96 14 -112 3z"/>
<path d="M983 3919 c-56 -21 -77 -133 -42 -219 10 -25 19 -43 19 -40 1 3 4 21
7 40 13 94 68 141 158 134 28 -2 57 -6 65 -9 8 -3 -2 11 -23 29 -65 58 -136
83 -184 65z"/>
<path d="M3329 3907 c-24 -12 -54 -37 -66 -56 -28 -41 -29 -55 -5 -42 29 15
80 20 117 10 40 -11 72 -40 106 -95 l23 -38 9 35 c11 40 3 119 -14 147 -33 52
-110 70 -170 39z"/>
<path d="M2087 3055 c-32 -33 -37 -59 -20 -109 7 -22 11 -41 9 -43 -2 -2 -20
6 -39 17 -62 37 -208 81 -287 87 -59 4 -94 1 -160 -16 -90 -24 -173 -29 -257
-16 -61 9 -109 -6 -119 -37 -13 -43 33 -58 134 -44 28 4 45 -7 24 -16 -14 -6
-80 -93 -100 -133 -23 -47 -43 -115 -34 -116 4 0 17 -2 28 -5 18 -3 26 5 44
51 56 138 246 250 406 239 83 -5 172 -37 312 -110 l122 -65 45 27 c25 14 45
28 45 30 0 3 -11 17 -24 31 -52 55 -74 113 -73 183 2 76 -13 88 -56 45z"/>
<path d="M2512 3052 c-9 -9 -30 -43 -45 -74 -85 -173 -433 -382 -650 -389
l-50 -2 29 -24 c16 -14 82 -70 147 -126 65 -56 122 -103 126 -105 4 -1 16 4
26 12 19 14 17 16 -35 64 -123 110 -127 115 -50 62 41 -28 104 -73 139 -101
50 -39 66 -47 77 -38 8 6 14 15 14 20 0 11 -126 112 -210 168 -36 23 -66 44
-68 46 -1 1 19 10 45 20 27 10 91 38 143 62 430 202 571 245 710 216 128 -26
224 -124 258 -263 14 -56 9 -145 -11 -192 -13 -31 -21 -37 -57 -43 -54 -9 -89
-41 -97 -87 -4 -30 -1 -41 20 -62 65 -65 179 5 164 100 -4 21 2 52 15 86 31
79 29 210 -5 302 -14 39 -24 73 -22 76 3 4 30 10 62 13 66 7 108 33 108 68 0
21 -4 24 -35 21 -115 -12 -165 -6 -275 33 -97 35 -122 39 -215 42 -58 1 -126
-3 -152 -9 -27 -6 -50 -9 -52 -7 -2 2 -1 22 3 45 13 72 -16 107 -57 66z"/>
<path d="M2326 2689 c-30 -23 -27 -31 19 -47 17 -6 54 -19 83 -30 l53 -19 -98
-67 c-54 -36 -114 -79 -133 -95 -33 -29 -34 -31 -17 -48 15 -15 20 -16 40 -4
l22 14 -20 -24 c-11 -13 -26 -29 -32 -37 -17 -17 -16 -22 3 -43 16 -18 18 -17
53 24 102 118 195 198 315 272 l29 17 -79 28 c-43 15 -103 39 -133 54 -66 31
-71 32 -105 5z"/>
<path d="M880 2682 c-40 -33 -1 -85 86 -115 l36 -13 -43 -28 c-63 -41 -138
-122 -162 -175 -15 -33 -22 -70 -23 -131 -2 -75 1 -92 25 -146 33 -72 68 -107
136 -140 132 -63 261 13 257 151 -3 84 -41 135 -101 135 -81 0 -115 -104 -49
-153 29 -22 77 -17 105 11 15 16 16 14 10 -22 -26 -158 -256 -124 -313 47 -48
143 48 329 210 406 80 39 156 38 242 -4 92 -45 230 -190 349 -368 53 -81 100
-147 104 -147 3 0 12 9 19 21 11 17 8 28 -25 82 -69 116 -148 221 -232 311
-41 44 -43 47 -13 26 81 -55 209 -207 321 -383 24 -37 48 -66 54 -64 34 11 26
35 -54 157 -131 200 -203 278 -324 355 -113 71 -197 97 -327 100 -82 2 -87 4
-117 34 -32 33 -103 70 -132 71 -9 0 -27 -8 -39 -18z"/>
<path d="M3533 2640 c-17 -4 -47 -16 -65 -27 -30 -17 -37 -18 -78 -6 -25 8
-76 17 -113 20 l-68 6 5 -28 c7 -35 6 -35 54 -40 107 -11 200 -54 262 -121 78
-85 112 -197 92 -304 -26 -140 -111 -215 -198 -174 -40 19 -73 80 -66 123 4
30 5 30 33 16 66 -35 129 -6 129 59 0 66 -75 94 -142 53 -28 -18 -57 -86 -59
-139 -6 -159 174 -219 291 -96 58 60 86 185 67 292 -12 65 -64 161 -120 220
l-53 56 31 1 c82 3 135 24 135 53 0 27 -80 48 -137 36z"/>
<path d="M3029 2590 c-96 -36 -165 -84 -264 -184 -55 -56 -128 -142 -162 -192
l-62 -91 23 -22 24 -23 32 49 c67 100 183 249 208 268 l26 19 -20 -29 c-11
-17 -76 -117 -144 -224 -121 -190 -122 -193 -103 -212 19 -19 19 -19 43 23 38
70 188 297 248 377 74 98 122 144 176 170 42 21 44 23 35 53 -4 17 -10 32 -11
33 -2 2 -24 -5 -49 -15z"/>
<path d="M1223 2452 c2 -31 0 -76 -6 -99 -18 -70 20 -113 98 -113 24 0 39 7
54 26 42 54 18 125 -46 140 -52 11 -53 12 -53 57 0 39 -2 43 -26 45 -25 2 -26
1 -21 -56z"/>
<path d="M2073 2278 c-31 -29 -85 -82 -119 -118 l-62 -64 20 -29 21 -30 60 64
c33 35 89 94 125 131 59 60 64 68 49 82 -23 24 -31 21 -94 -36z"/>
<path d="M2301 2271 c-9 -16 7 -37 112 -144 l122 -125 17 23 c17 23 17 24 -93
132 -141 137 -137 133 -143 133 -3 0 -10 -9 -15 -19z"/>
<path d="M2178 2253 c-16 -15 -12 -22 62 -97 43 -45 95 -100 115 -123 21 -24
41 -43 45 -43 4 0 15 11 24 25 16 25 16 25 -97 140 -63 63 -118 115 -124 115
-5 0 -16 -8 -25 -17z"/>
<path d="M2095 2153 c-28 -31 -66 -75 -85 -97 -19 -23 -52 -59 -72 -81 -43
-45 -44 -51 -22 -84 l17 -24 30 34 c16 19 72 87 125 152 76 95 94 122 86 135
-18 28 -29 23 -79 -35z"/>
<path d="M2977 2052 c-21 -37 -61 -108 -91 -159 l-54 -92 23 -21 22 -21 13 31
c7 17 17 33 21 36 9 5 1 -14 -48 -116 -19 -41 -20 -47 -5 -62 8 -10 18 -18 22
-18 12 0 110 216 181 397 l8 22 56 -31 c82 -44 166 -126 200 -195 65 -131 29
-323 -86 -456 -64 -74 -154 -107 -239 -87 -44 11 -100 50 -100 71 0 4 7 14 15
23 13 13 21 13 60 2 24 -8 64 -25 89 -39 37 -21 48 -23 62 -13 15 11 10 17
-42 50 -96 59 -171 70 -216 29 -52 -47 16 -150 112 -170 123 -26 265 20 351
114 50 55 106 170 117 244 16 106 -22 218 -106 311 -65 72 -193 160 -293 202
l-35 15 -37 -67z"/>
<path d="M666 2087 c-42 -31 -20 -119 47 -194 32 -35 36 -46 38 -99 6 -146 82
-255 218 -310 23 -9 44 -14 47 -11 12 12 -8 87 -23 87 -8 0 -34 12 -58 26 -82
48 -115 135 -111 292 3 89 -6 132 -26 132 -7 0 -23 -41 -20 -52 1 -4 -5 -5
-13 -2 -8 3 -19 22 -25 42 -29 95 -43 112 -74 89z"/>
<path d="M1415 2028 c-48 -18 -136 -68 -191 -109 -193 -143 -247 -396 -123
-570 36 -49 108 -119 124 -119 6 0 16 14 22 31 11 28 9 34 -21 73 -45 60 -70
151 -70 261 -1 77 3 98 26 147 35 75 104 148 176 186 l59 31 16 -72 c10 -40
19 -76 20 -82 2 -5 9 -29 16 -52 11 -40 13 -42 36 -31 14 6 25 18 25 27 1 9
11 -3 23 -26 l22 -41 24 19 24 20 -76 157 c-42 86 -82 158 -89 159 -7 1 -26
-3 -43 -9z"/>
<path d="M2400 1898 c-35 -57 -87 -137 -116 -179 l-53 -76 24 -23 23 -22 36
53 c19 30 71 113 115 184 73 120 78 131 64 148 -9 9 -19 17 -23 17 -4 0 -35
-46 -70 -102z"/>
<path d="M1713 1888 c-71 -87 -81 -103 -72 -120 10 -19 18 -14 100 68 49 49
89 95 89 104 -1 15 -23 51 -31 49 -2 0 -41 -46 -86 -101z"/>
<path d="M3732 1924 l-39 -46 -17 42 c-14 36 -19 40 -32 29 -11 -9 -14 -27
-11 -69 7 -108 -34 -210 -117 -292 -26 -26 -47 -56 -51 -77 l-7 -33 32 18
c102 60 190 197 199 309 1 6 17 17 36 24 77 28 119 93 83 129 -20 20 -35 14
-76 -34z"/>
<path d="M2636 1928 c-15 -21 -14 -24 17 -57 17 -19 37 -40 43 -46 6 -5 37
-41 69 -78 l59 -68 13 25 c16 31 16 32 -76 135 -35 39 -71 80 -81 91 -22 25
-25 25 -44 -2z"/>
<path d="M2525 1904 c-9 -14 -15 -31 -13 -38 4 -20 168 -196 182 -196 6 0 17
9 24 20 11 18 8 26 -25 68 -21 26 -45 54 -53 62 -8 8 -34 36 -57 62 l-42 46
-16 -24z"/>
<path d="M1836 1871 c-16 -18 -14 -23 39 -101 51 -75 132 -181 182 -237 20
-23 20 -23 38 -3 12 14 15 23 8 32 -6 7 -37 47 -69 88 -32 42 -84 113 -114
158 -30 45 -58 82 -61 82 -3 0 -14 -8 -23 -19z"/>
<path d="M1971 1853 c-12 -13 -12 -20 4 -48 29 -55 215 -295 228 -295 11 0 48
63 40 69 -14 9 -163 188 -202 244 -37 50 -48 55 -70 30z"/>
<path d="M1729 1774 c-91 -82 -102 -91 -123 -107 -18 -14 -18 -15 -1 -45 l18
-31 61 47 c83 64 146 122 146 136 0 6 -8 21 -18 34 l-18 23 -65 -57z"/>
<path d="M2419 1733 c-35 -53 -92 -134 -125 -179 l-62 -83 23 -21 22 -21 30
38 c31 39 166 243 198 300 15 26 16 34 6 47 -8 9 -17 16 -21 16 -4 0 -36 -44
-71 -97z"/>
<path d="M1495 1668 c-67 -53 -204 -119 -259 -125 -47 -6 -49 -9 -28 -64 11
-28 15 -28 92 -14 59 10 113 26 163 47 38 17 47 25 45 42 -3 21 -17 24 -53 11
-11 -5 8 14 42 41 60 47 71 66 55 90 -5 8 -24 -2 -57 -28z"/>
<path d="M2721 1628 c-17 -29 -69 -108 -115 -174 l-84 -122 24 -13 c28 -14 18
-24 108 106 60 86 129 186 139 201 6 10 -23 54 -36 54 -3 0 -19 -24 -36 -52z"/>
<path d="M1553 1623 c-13 -8 -23 -22 -23 -30 0 -37 181 -383 201 -383 4 0 17
8 29 18 l23 18 -26 42 c-27 42 -118 220 -156 305 -12 26 -23 47 -24 46 -1 0
-12 -7 -24 -16z"/>
<path d="M2914 1622 c-10 -15 -5 -22 30 -49 22 -17 67 -45 100 -62 32 -17 54
-31 49 -31 -36 0 -126 39 -195 86 -79 53 -97 56 -98 19 0 -42 201 -137 320
-151 123 -13 119 -14 139 23 16 31 16 31 -36 36 -27 2 -58 7 -69 10 -49 12
-134 60 -177 97 -25 22 -47 40 -49 40 -2 0 -8 -8 -14 -18z"/>
<path d="M1661 1583 l-21 -18 58 -100 c32 -55 84 -141 117 -192 l60 -91 23 19
24 19 -85 132 c-46 73 -98 159 -116 191 -18 31 -34 57 -36 57 -1 0 -12 -8 -24
-17z"/>
<path d="M2766 1535 c-8 -23 -142 -220 -187 -278 -38 -47 -39 -51 -23 -68 9
-11 21 -19 25 -19 17 0 155 189 228 311 l21 37 -25 16 c-30 20 -31 20 -39 1z"/>
<path d="M2130 1513 c0 -6 -48 -59 -106 -117 -94 -93 -104 -107 -94 -126 6
-11 16 -20 23 -20 11 0 165 151 210 206 16 20 16 22 -8 44 -14 13 -25 19 -25
13z"/>
<path d="M3505 1469 c-18 -9 -20 -19 -19 -127 1 -64 -2 -131 -7 -148 -16 -56
-74 -127 -140 -173 -47 -31 -66 -51 -70 -72 -4 -16 -5 -29 -2 -29 2 0 26 12
54 26 64 32 129 91 169 154 29 46 37 51 123 81 96 34 147 72 147 108 0 17 -24
51 -36 51 -19 0 -84 -37 -124 -70 -26 -22 -50 -40 -52 -40 -3 0 -4 45 -3 101
2 103 -2 150 -14 148 -3 0 -15 -5 -26 -10z"/>
<path d="M919 1453 c-1 -10 -1 -42 0 -72 l2 -53 -43 31 c-44 33 -76 39 -96 19
-37 -37 5 -83 100 -113 50 -16 59 -23 75 -59 21 -48 87 -116 146 -150 53 -31
183 -75 245 -82 138 -17 252 -9 372 27 92 27 97 31 76 63 -16 25 -17 26 -47
10 -32 -16 -119 -45 -119 -39 0 2 24 15 53 28 28 14 76 40 105 59 53 34 53 34
35 57 l-18 23 -85 -50 c-47 -28 -114 -60 -150 -72 -81 -28 -226 -38 -301 -20
-191 45 -308 182 -301 352 1 28 -4 40 -18 48 -26 14 -30 13 -31 -7z"/>
<path d="M2322 1420 c-13 -16 -19 -30 -15 -30 4 0 26 -17 48 -38 22 -21 65
-57 95 -81 l54 -43 19 23 18 23 -93 88 c-51 48 -96 88 -99 88 -3 0 -15 -13
-27 -30z"/>
<path d="M1432 1418 c-92 -34 -152 -114 -177 -236 -15 -70 -11 -82 28 -82 9 0
20 -1 24 -2 4 -2 9 17 11 42 10 148 125 282 200 234 24 -16 28 -35 12 -63 -14
-26 -73 -47 -142 -50 -12 -1 -18 -9 -18 -27 0 -25 2 -26 48 -22 98 10 162 55
169 120 10 83 -59 122 -155 86z"/>
<path d="M2192 1428 c-7 -7 -12 -17 -12 -24 0 -12 122 -130 171 -165 26 -18
27 -18 44 1 10 11 16 22 14 24 -2 2 -38 32 -79 67 -41 35 -85 74 -96 86 -25
27 -26 27 -42 11z"/>
<path d="M2084 1309 c-38 -38 -95 -88 -126 -111 -32 -23 -58 -44 -58 -46 0 -2
5 -12 10 -23 12 -22 33 -25 52 -6 7 6 34 28 58 47 59 46 160 141 170 160 5 10
1 20 -14 32 -22 16 -24 14 -92 -53z"/>
<path d="M2433 1226 c-12 -20 -117 -140 -196 -223 -62 -64 -68 -73 -57 -93 12
-22 12 -22 48 11 20 19 39 37 42 40 3 4 37 42 77 85 156 173 151 164 113 184
-14 7 -21 6 -27 -4z"/>
<path d="M3180 1201 c-24 -7 -25 -10 -31 -121 -3 -63 -14 -142 -23 -175 -62
-211 -232 -378 -434 -425 -96 -22 -225 -14 -338 22 -5 1 -25 -14 -43 -34 l-32
-37 43 -22 c24 -12 61 -28 82 -34 34 -10 41 -17 53 -56 20 -65 64 -109 109
-109 35 0 35 24 -1 84 l-34 56 82 1 c109 1 179 16 246 53 21 12 29 10 70 -15
25 -15 65 -29 87 -32 53 -5 109 16 100 39 -3 9 -6 20 -6 25 0 15 -65 39 -103
39 -19 0 -36 3 -40 6 -3 3 18 34 46 68 29 33 70 88 91 121 l39 61 66 1 c69 2
160 30 192 59 21 18 25 49 9 59 -36 22 -80 11 -138 -34 -20 -16 -52 -34 -71
-40 -38 -12 -38 -18 0 84 20 51 23 80 23 202 1 83 -3 146 -9 151 -5 5 -21 6
-35 3z"/>
<path d="M2626 1171 c-16 -18 -14 -21 56 -66 40 -27 78 -52 83 -58 16 -15
-110 50 -182 94 -63 39 -68 40 -80 23 -7 -10 -13 -21 -13 -24 0 -11 114 -78
219 -131 114 -56 229 -95 305 -104 54 -7 56 -6 66 20 11 29 14 62 4 52 -8 -8
-132 37 -209 75 -33 17 -97 55 -143 84 -45 30 -84 54 -86 54 -2 0 -11 -8 -20
-19z"/>
<path d="M1821 1112 l-22 -17 70 -87 c122 -152 153 -177 181 -143 11 13 9 20
-12 43 -14 15 -35 38 -48 52 -12 14 -47 58 -77 98 -31 39 -59 72 -63 72 -4 0
-18 -8 -29 -18z"/>
<path d="M2314 966 c-83 -83 -149 -157 -146 -164 4 -13 28 -4 54 20 7 7 43 38
78 68 36 30 98 86 137 124 69 66 72 71 56 88 -9 10 -19 17 -22 16 -3 -1 -74
-69 -157 -152z"/>
<path d="M1965 1086 c-17 -12 -12 -21 75 -130 51 -64 96 -116 100 -116 4 0 14
8 24 18 15 18 15 21 -9 48 -14 16 -53 66 -87 112 -34 45 -67 82 -73 82 -6 0
-20 -6 -30 -14z"/>
<path d="M1251 908 c5 -29 11 -63 14 -76 5 -21 4 -22 -17 -11 -13 7 -38 29
-56 50 -27 31 -41 39 -68 39 -32 0 -34 -2 -34 -34 0 -68 67 -129 154 -140 21
-3 39 -6 41 -8 1 -2 17 -32 36 -68 22 -44 63 -94 122 -153 49 -49 86 -91 84
-94 -3 -2 -31 -8 -62 -12 -66 -9 -110 -38 -110 -72 0 -22 4 -24 50 -23 51 1
109 27 152 67 l23 20 47 -21 c78 -35 138 -45 233 -39 101 6 105 0 44 -68 -41
-46 -44 -81 -10 -96 55 -25 138 71 130 151 -4 37 -2 38 44 58 63 27 152 89
213 147 45 43 48 49 32 60 -31 21 -52 25 -65 12 -7 -7 -31 -26 -53 -43 -195
-150 -405 -166 -592 -45 -120 77 -234 242 -263 378 -13 59 -12 58 -61 67 l-36
6 8 -52z"/>
<path d="M2048 816 c-43 -37 -44 -41 -22 -50 10 -4 31 6 55 25 32 25 37 34 28
45 -16 19 -19 18 -61 -20z"/>
<path d="M2127 792 c-9 -10 -17 -23 -17 -28 0 -15 157 -114 244 -154 135 -62
250 -78 328 -45 38 15 68 57 68 93 0 26 -35 69 -73 89 -50 27 -180 24 -234 -4
-54 -29 -59 -39 -30 -58 22 -14 27 -14 71 11 40 22 56 25 101 21 166 -16 158
-133 -8 -120 -108 8 -212 64 -293 157 -41 48 -49 53 -65 43 -11 -7 -17 -18
-14 -25 6 -15 -10 -8 -41 20 -20 18 -21 18 -37 0z"/>
<path d="M1735 785 c-103 -37 -96 -140 10 -160 75 -14 225 2 225 25 0 10 -40
50 -49 50 -5 0 -28 -7 -51 -15 -23 -8 -53 -15 -67 -15 -29 0 -83 26 -83 41 0
19 65 37 122 35 63 -3 109 -28 188 -102 92 -87 89 -85 121 -68 l30 15 -33 27
c-18 15 -49 42 -69 60 -111 101 -247 143 -344 107z"/>
<path d="M2071 746 c-9 -10 -8 -16 3 -25 10 -9 16 -8 25 3 9 10 8 16 -3 25
-10 9 -16 8 -25 -3z"/>
</g>
</svg>
